<?xml version="1.0" encoding="UTF-8"?>
<svg width="24px" height="24px" viewBox="0 0 24 24" version="1.1" xmlns="http://www.w3.org/2000/svg" xmlns:xlink="http://www.w3.org/1999/xlink">
    <!-- Generator: Sketch 46.2 (44496) - http://www.bohemiancoding.com/sketch -->
    <title>logo-circular-keplr</title>
    <desc>Created with Sketch.</desc>
    <defs></defs>
    <g id="Page-1" stroke="none" stroke-width="1" fill="none" fill-rule="evenodd">
        <g id="uctq7aeh" fill-rule="nonzero">
            <path d="M12.75,0.029925187 C14.1504,0.109326683 15.4916,0.427331671 16.7736,0.98394015 C18.0332,1.52857855 19.1682,2.2717207 20.1786,3.21336658 C21.0434,4.0157606 21.758,4.90473815 22.3224,5.88029925 C22.3248,5.92778055 22.3194,5.94114713 22.3062,5.920399 C22.2514,5.94294264 22.257,5.96049875 22.2882,5.97127182 C22.1292,6.01236908 21.9454,6.00758105 21.735,5.97007481 C21.5878,5.94374065 21.4428,5.92817955 21.3,5.92339152 C21.28,5.92458853 21.2604,5.92239401 21.2412,5.91680798 C20.9516,5.83581047 20.6512,5.77496259 20.34,5.73426434 C20.32,5.73187032 20.301,5.72648379 20.283,5.71810474 C20.1814,5.67182045 20.0654,5.64608479 19.935,5.64089776 C19.6482,5.62972569 19.4132,5.62473815 19.23,5.62593516 C19.21,5.62593516 19.1934,5.63351621 19.1802,5.6486783 C19.1654,5.66503741 19.1158,5.65865337 19.0314,5.62952618 C18.9422,5.5836409 18.8396,5.56369077 18.7236,5.56967581 C18.5032,5.58284289 18.3232,5.57546135 18.1836,5.54753117 C18.0628,5.52319202 17.9166,5.51441397 17.745,5.52119701 C17.5382,5.51720698 17.3494,5.51840399 17.1786,5.52478803 C17.171,5.52518703 17.2036,5.54014963 17.2764,5.56967581 C17.34,5.59162095 17.3412,5.61037406 17.28,5.62593516 C17.2316,5.63830424 17.2166,5.64329177 17.235,5.64089776 C17.3582,5.64568579 17.462,5.66683292 17.5464,5.70433915 C16.5608,5.71531172 15.5716,5.71451372 14.5524,5.71571072 C14.5972,5.66783042 14.5902,5.66164589 14.5314,5.69715711 C14.4862,5.72389027 14.4050026,5.81436108 14.3526026,5.8171541 C14.2334026,5.82034612 14.0410019,5.83510921 13.9778019,5.8171541 C13.7430019,5.75052068 13.583774,5.87580747 13.292574,5.8171541 C13.227374,5.80318901 13.1583688,5.79401196 13.0955688,5.8171541 C12.9475688,5.87141844 12.9401291,6.08020183 12.8145291,6.07980282 C12.7945291,6.07980282 12.5674,5.93895262 12.555,5.92339152 C12.5066,5.86234414 12.2278,5.91012168 12.2286,5.8171541 C12.2286,5.79720398 12.235,5.43213472 12.2286,5.4133816 C12.1578,5.21148634 11.7979118,5.04199674 11.7111118,4.71321869 C11.6959118,4.65496432 11.9213501,4.40538653 11.9813501,4.40977556 C12.0153501,4.41216958 11.9513501,4.19479545 11.9813501,4.17923435 C11.9989501,4.16965829 12.4559272,4.30478008 12.4755272,4.30956811 C12.6299272,4.34667534 12.5303896,4.29243994 12.7123896,4.3494973 C12.7315896,4.35548233 12.6133015,4.26300746 12.6097015,4.24345634 C12.5773015,4.07507729 12.808,4.29749276 12.75,4.13070972 C12.744,4.11275461 12.6757218,4.07895418 12.9288,3.99501247 C12.7872,3.9678803 12.513053,4.12777398 12.405453,4.08508072 C12.301453,4.04358446 12.0034634,3.95002252 11.9174634,3.95002252 C11.8974634,3.95161853 11.9250634,3.75224084 11.9174634,3.73388673 C11.8346634,3.53199147 12.108,3.40189526 12.1152,3.20558603 C12.116,3.18563591 11.8936,3.4041615 11.88,3.3893984 C11.8412,3.34670514 11.9852,3.09586035 11.88,3.10862843 C11.86,3.11102244 11.8406,3.10902743 11.8218,3.10264339 C11.5726,3.01965087 11.7181691,3.42371262 11.5281691,3.3893984 C11.5085691,3.38580738 11.1814,3.55265667 11.163,3.56063672 C11.0086,3.62527512 10.8065751,3.61802492 10.6965751,3.59687779 C10.6769751,3.59288777 9.97754908,3.48898084 9.98114908,3.46942971 C9.99314908,3.40159929 10.3977197,3.11501247 10.3421197,3.10264339 C10.2201197,3.07551122 10.3487473,3.06469926 10.2499473,3.03716809 C10.2307473,3.03198105 9.96090759,3.1515212 9.94090759,3.15351621 C9.77450759,3.1527182 9.6459724,3.19221945 9.4747724,3.15351621 C9.3551724,3.12678304 8.7554,3.039202 8.625,3.10264339 C8.5926,3.11421446 9.3,2.7521197 9.3,2.71780549 C9.3008,2.42653367 8.6258,2.58099497 8.625,2.33720445 C8.625,2.29890021 7.59543525,2.65161701 8.30643525,2.33720445 C8.4750576,2.26263766 8.23088392,1.9036409 8.05608392,1.91521197 C8.03608392,1.91640898 8.05688392,1.74585568 8.05608392,1.72590555 C8.05328392,1.65248909 8.25446633,1.51387373 8.22326633,1.43846226 C8.21566633,1.42010815 8.22326633,1.29739021 8.22326633,1.27676231 C8.22326633,0.982297277 8.31163525,1.02210223 8.30643525,0.717264327 C8.30563525,0.667788018 8.39084495,0.576665363 8.44044495,0.573074341 C8.49884495,0.569084316 8.62243994,0.552681017 8.58843994,0.492431641 C9.88203994,0.109389247 11.2936,-0.0522693267 12.75,0.029925187 Z" id="Shape" fill="#05BEE9"></path>
            <path d="M8.625,0.481197007 C8.659,0.541446384 8.6468,0.573566085 8.5884,0.57755611 C8.5388,0.581147132 8.5144,0.607680798 8.5152,0.657157107 C8.5204,0.961995012 8.522,1.26164589 8.52,1.55610973 C8.52,1.57605985 8.5238,1.59521197 8.5314,1.61356608 C8.5626,1.68897756 8.5796,1.76339152 8.5824,1.83680798 C8.5832,1.8567581 8.5936,1.86613466 8.6136,1.86493766 C8.7884,1.85336658 8.998,1.85057357 9.2424,1.8565586 C9.2808,1.85735661 9.3,1.87690773 9.3,1.91521197 C9.3008,2.15900249 9.3008,2.42653367 9.3,2.71780549 C9.3,2.7521197 9.3162,2.76349127 9.3486,2.7519202 C9.479,2.6884788 9.604,2.67012469 9.7236,2.69685786 C9.8948,2.7355611 10.0636,2.75531172 10.23,2.75610973 C10.25,2.75411471 10.2696,2.75571072 10.2888,2.76089776 C10.3876,2.78842893 10.498,2.8157606 10.62,2.84289277 C10.6756,2.85526185 10.6974,2.8953616 10.6854,2.96319202 C10.6818,2.98274314 10.6898,2.99451372 10.7094,2.99850374 C10.8194,3.01965087 10.9516,2.99790524 11.106,2.93326683 C11.1244,2.92528678 11.1434,2.92309227 11.163,2.92668329 C11.353,2.96099751 11.5726,3.01965087 11.8218,3.10264339 C11.8406,3.10902743 11.86,3.11102244 11.88,3.10862843 C11.9852,3.09586035 12.0572,3.11082294 12.096,3.15351621 C12.1096,3.1682793 12.116,3.18563591 12.1152,3.20558603 C12.108,3.40189526 12.1458,3.60099751 12.2286,3.80289277 C12.2362,3.82124688 12.25,3.82962594 12.27,3.82802993 C12.356,3.82802993 12.451,3.84877805 12.555,3.89027431 C12.6626,3.93296758 12.7872,3.9678803 12.9288,3.99501247 C12.9472,3.99900249 12.9594,4.00997506 12.9654,4.02793017 C13.0234,4.19471322 13.0686,4.36229426 13.101,4.53067332 C13.1046,4.55022444 13.0968,4.55700748 13.0776,4.55102244 C12.8956,4.49396509 12.7274,4.44688279 12.573,4.40977556 C12.5534,4.40498753 12.5348,4.40738155 12.5172,4.41695761 C12.4872,4.4325187 12.4552,4.43910224 12.4212,4.43670823 C12.3612,4.4323192 12.3388,4.45925187 12.354,4.51750623 C12.4408,4.84628429 12.5196,5.11162095 12.5904,5.31351621 C12.5968,5.33226933 12.6,5.35162095 12.6,5.37157107 C12.5992,5.46453865 12.623,5.54154613 12.6714,5.60259352 C12.6838,5.61815461 12.7,5.62593516 12.72,5.62593516 C12.8456,5.62633416 12.9824,5.5994015 13.1304,5.54513716 C13.1932,5.52199501 13.2572,5.51740648 13.3224,5.53137157 C13.6136,5.59002494 13.8766,5.65266833 14.1114,5.71930175 C14.1746,5.73725686 14.2658,5.7446384 14.385,5.74144638 C14.4374,5.73865337 14.4862,5.72389027 14.5314,5.69715711 C14.5902,5.66164589 14.5972,5.66783042 14.5524,5.71571072 C14.148,6.16698254 13.743,6.61586035 13.3374,7.06234414 C13.3162,7.02204489 13.2804,6.99710723 13.23,6.98753117 C13.0472,6.97157107 12.8672,6.94663342 12.69,6.9127182 C12.4868,6.87361596 12.2928,6.83690773 12.108,6.80259352 C12.0884,6.79860349 12.069,6.799601 12.0498,6.80558603 C11.991,6.82274314 11.9078,6.84389027 11.8002,6.86902743 C11.749,6.8805985 11.6994,6.87640898 11.6514,6.85645885 C11.5686,6.84249377 11.4748,6.8313217 11.37,6.82294264 C11.1764,6.78783042 10.9814,6.74793017 10.785,6.7032419 C10.6914,6.68169576 10.5876,6.68887781 10.4736,6.72478803 C10.4536,6.72798005 10.4446,6.719601 10.4466,6.69965087 C10.4486,6.67650873 10.4314,6.66274314 10.395,6.65835411 C10.2698,6.639202 10.1598,6.61925187 10.065,6.59850374 C9.9882,6.58174564 9.9352,6.58952618 9.906,6.62184539 C9.892,6.63620948 9.8764,6.63840399 9.8592,6.62842893 C9.8416,6.61845387 9.8242,6.60608479 9.807,6.5913217 C9.7914,6.57855362 9.7822,6.58214464 9.7794,6.60209476 C9.7686,6.67391521 9.7596,6.78244389 9.7524,6.9276808 C9.7496,6.53985037 9.7488,6.14304239 9.75,5.73725686 C9.75,5.72289277 9.7428,5.71571072 9.7284,5.71571072 C8.9528,5.72249377 8.185,5.72249377 7.425,5.71571072 C7.3814,5.71531172 7.3606,5.72528678 7.3626,5.74563591 C7.343,5.76438903 7.3388,5.839202 7.35,5.97007481 C7.3568,6.04987531 7.3492,6.07660848 7.3272,6.05027431 C7.3124,6.03670823 7.3036,6.02014963 7.3008,6.0005985 C7.2916,5.9367581 7.272,5.88129676 7.242,5.83421446 C7.2316,5.81745636 7.2164,5.81067332 7.1964,5.81386534 C7.1248,5.8242394 7.0622,5.82024938 7.0086,5.80189526 C6.9162,5.77276808 6.81,5.75900249 6.69,5.7605985 C6.4996,5.76937656 6.3208,5.76817955 6.1536,5.75700748 C5.9408,5.74304239 5.7308,5.7446384 5.5236,5.76179551 C5.5036,5.76339152 5.4848,5.76877805 5.4672,5.77795511 C5.3756,5.8246384 5.2732,5.85875312 5.16,5.88029925 C5.0592,5.89945137 4.9616,5.94793017 4.8672,6.02573566 C4.85,6.03610973 4.8314,6.04129676 4.8114,6.04129676 C4.5542,6.04568579 4.2654,6.04688279 3.945,6.04488778 C3.9046,6.04448878 3.8894,6.0638404 3.8994,6.10294264 C3.9134,6.14683292 3.8886,6.16738155 3.825,6.16458853 C3.4698,6.15022444 3.1448,6.15441397 2.85,6.17715711 C2.83,6.17875312 2.8106,6.18314214 2.7918,6.19032419 C2.6206,6.25416459 2.4762,6.28887781 2.3586,6.29446384 C2.3386,6.29526185 2.3328,6.28648379 2.3412,6.26812968 C2.3764,6.18952618 2.336,6.15501247 2.22,6.16458853 C2.046,6.17895262 1.881,6.17975062 1.725,6.16698254 C1.705,6.16538653 1.6854,6.16758105 1.6662,6.17356608 C1.5862,6.19870324 1.5692,6.1753616 1.6152,6.10354115 C1.626,6.08678304 1.6218,6.08139651 1.6026,6.08738155 C1.5894,6.09177057 1.5794,6.08259352 1.5726,6.05985037 C2.0186,5.26024938 2.5782,4.50094763 3.2514,3.78194514 C3.7834,3.20897756 4.3896,2.68149626 5.07,2.19950125 C6.166,1.42304239 7.351,0.850274314 8.625,0.481197007 Z" id="Shape" fill="#05B5F2"></path>
            <path d="M16.9235608,5.07364874 C17.0937311,5.10871317 17.3131484,5.1179802 17.5818127,5.10144983 C17.7232149,5.09393602 17.8482828,5.11898204 17.9570162,5.1765879 C18.0598985,5.21315509 18.1203602,5.22116982 18.1384012,5.20063208 C18.1544918,5.1815971 18.1747269,5.17207961 18.1991066,5.17207961 C18.4224246,5.17057685 18.7088861,5.17683836 19.058491,5.19086413 C19.2174466,5.1973761 19.3588489,5.22968547 19.4826977,5.28779224 C19.5046395,5.29831157 19.5278002,5.305074 19.5521799,5.30807952 C19.931528,5.35917341 20.297711,5.43556378 20.6507291,5.53725064 C20.6741336,5.54426353 20.6980257,5.54701859 20.7224054,5.54551583 C20.8964764,5.55152688 21.0732292,5.57106277 21.2526638,5.60412353 C21.5091383,5.65121005 21.7331877,5.6572211 21.9248121,5.62215666 C21.888974,5.59210143 21.8821476,5.57006093 21.9065273,5.53950478 C21.9216427,5.51996889 21.935783,5.52072027 21.948948,5.54175893 C21.9650386,5.56780679 22.1153353,5.59686018 22.1124098,5.53725064 C23.2163225,7.424719 23.7552407,8.85735157 23.9639309,11.0899541 C23.9463775,11.128525 23.9073692,11.7223662 23.8995677,11.7083405 C23.8873778,11.6868009 23.869093,11.6772834 23.8447133,11.679788 C23.4970589,11.711346 23.1206363,11.7211139 22.7154457,11.7090918 C22.4399551,11.7005762 22.2188313,11.7151029 22.0520741,11.7526719 C22.028182,11.7581821 22.0042899,11.7576811 21.9803978,11.7511692 C21.8667884,11.7216149 21.7446461,11.7090918 21.613971,11.7136001 C21.4047931,11.7065872 21.2173133,11.6863 21.0515313,11.6527383 C20.8857494,11.6191766 20.7267937,11.6342042 20.5746644,11.6978211 C20.5512599,11.7053349 20.5273678,11.7090918 20.5029881,11.7090918 C20.3513464,11.7075891 20.1867834,11.7263736 20.0092992,11.7654454 C19.90983,11.7874859 19.8230383,11.7952502 19.748924,11.7887382 C19.5846049,11.7541747 19.4290624,11.7604362 19.2822966,11.8075227 C19.2008684,11.8340715 19.1079818,11.8513533 19.0036367,11.859368 C18.8992915,11.8463441 18.8183509,11.8586166 18.7608149,11.8961856 C18.7398483,11.9092096 18.717419,11.9177252 18.6935269,11.9217326 C18.4375401,11.9462777 18.1752145,11.9254895 17.9065502,11.859368 C17.7953788,11.8323183 17.6903023,11.8150365 17.5913207,11.8075227 C17.4138365,11.7769666 17.2507363,11.7879868 17.1020202,11.8405835 C16.8977183,11.912716 16.678301,11.9557952 16.4437683,11.969821 C16.4193886,11.9713237 16.3959841,11.9770843 16.3735548,11.9871027 C16.0966014,12.1223512 15.8030699,12.1361266 15.4929601,12.0284286 C15.3700864,11.9858504 15.2481879,11.9545429 15.1272646,11.9345061 C15.0170684,11.9259904 14.9027276,11.9052022 14.7842423,11.8721415 C14.7583998,11.8606203 14.7583998,11.8488487 14.7842423,11.8368266 C14.873472,11.796252 14.969528,11.7782189 15.0724103,11.7827272 C15.09679,11.783729 15.1199507,11.7789703 15.1418924,11.7684509 C15.2818319,11.7008267 15.4217714,11.6589998 15.5617109,11.6429703 C15.4763819,11.6457254 15.3986107,11.6372098 15.3283971,11.6151693 C15.1104426,11.5545579 14.9093101,11.5107273 14.7249996,11.4836776 C14.5436146,11.4571288 14.3646677,11.4122965 14.1881586,11.3491805 C14.1652417,11.3416667 14.1415934,11.3384107 14.1172137,11.3394125 C13.9831254,11.3439208 13.8451363,11.3168711 13.7032464,11.2582634 C13.6803295,11.2487459 13.6805733,11.2407312 13.7039778,11.2342192 C13.8775613,11.1931438 14.0365169,11.1463077 14.1808447,11.093711 C14.3880722,11.018573 14.5840849,11.0173207 14.7688831,11.0899541 C14.7913124,11.0989707 14.8147169,11.1014753 14.8390966,11.0974679 C15.0794804,11.0724219 15.3264468,11.018072 15.5799956,10.9344183 C15.6170528,10.9218953 15.6260733,10.9093723 15.6070571,10.8968493 C15.3837391,10.8948456 15.162859,10.8587793 14.9444169,10.7886505 C14.838609,10.7545879 14.7471851,10.7345511 14.6701453,10.72854 C14.6457656,10.7310446 14.6218735,10.72854 14.598469,10.7210262 C14.4390257,10.6684296 14.2866526,10.6070668 14.1413496,10.5369379 C14.1189203,10.5264186 14.1196517,10.5179029 14.1435438,10.511391 C14.2259472,10.4878477 14.3149331,10.4680614 14.4105015,10.4520319 C14.2259472,10.4289896 14.0014102,10.3788975 13.736159,10.2927392 C13.7127545,10.2852254 13.6888624,10.2832217 13.6644827,10.2867281 C13.5967072,10.2962456 13.5221053,10.2834722 13.4406771,10.2484077 C13.2636805,10.1722678 13.0959482,10.1319437 12.9374801,10.1274354 C12.9131004,10.1269345 12.8894521,10.1224262 12.8665352,10.1139106 C12.5627642,10.0032072 12.2862984,9.96363444 12.0371379,9.99519243 C12.0127582,9.99819795 11.994961,10.0109714 11.9837463,10.0335128 C11.97692,10.0475386 11.9520527,10.0738369 11.9091445,10.1124078 C11.9008554,10.1199216 11.8876903,10.0948756 11.8696493,10.0372698 C13.2943989,8.48441627 14.7093966,6.93156279 16.1146424,5.37870931 C16.1414601,5.349155 16.1414601,5.31884931 16.1146424,5.28779224 C16.1414601,5.27877568 16.1521871,5.27301509 16.1468236,5.27051049 C16.0439413,5.22342396 15.9174106,5.19687518 15.7672317,5.19086413 C15.7448024,5.19386965 15.7630872,5.18760815 15.822086,5.17207961 C15.8966879,5.15254372 15.8952251,5.12900045 15.8176977,5.10144983 C15.7289556,5.06438171 15.6892167,5.04559719 15.698481,5.04509627 C15.9066836,5.03708155 16.1368279,5.03557878 16.388914,5.04058799 C16.5980918,5.03207234 16.7763074,5.04309259 16.9235608,5.07364874 Z" id="Shape" fill="#20A9EA"></path>
            <path d="M7.425,5.71571072 C8.185,5.72249377 8.9528,5.72249377 9.7284,5.71571072 C9.7428,5.71571072 9.75,5.72289277 9.75,5.73725686 C9.7488,6.14304239 9.7496,6.53985037 9.7524,6.9276808 C9.7496,8.26433915 9.7488,9.60518703 9.75,10.9502244 C9.75,10.9885287 9.763,10.9935162 9.789,10.965187 C10.9658,9.66802993 12.1486,8.36708229 13.3374,7.06234414 C13.743,6.61586035 14.148,6.16698254 14.5524,5.71571072 C15.5716,5.71451372 16.5608,5.71531172 17.52,5.71810474 C17.542,5.74284289 17.542,5.76698254 17.52,5.79052369 C16.3672,7.02743142 15.2064,8.26433915 14.0376,9.50124688 C13.3572,10.2338155 12.6666,10.965985 11.9658,11.6977556 C11.9206,11.7448379 11.9208,11.7919202 11.9664,11.8390025 C12.67,12.5695761 13.3762,13.2973566 14.085,14.0223441 C14.771,14.7489277 15.461,15.4621446 16.155,16.161995 C16.7574,16.8 17.3592,17.4266334 17.9604,18.0418953 C17.9744,18.0562594 17.9856,18.072419 17.994,18.0903741 C18.0188,18.1414464 18.0172,18.1785536 17.9892,18.2016958 C17.974,18.2144638 17.9564,18.2210474 17.9364,18.2214464 C17.798,18.2242394 17.6492,18.2260349 17.49,18.2268329 C16.712,18.2240399 15.912,18.2232419 15.09,18.2244389 C15.0636,18.2244389 15.0414,18.2150623 15.0234,18.1963092 C14.5954,17.7486284 14.1734,17.3091272 13.7574,16.8778055 C12.4298,15.4824938 11.103,14.0951621 9.777,12.7158105 C9.759,12.6970574 9.75,12.7006484 9.75,12.7265835 C9.7488,13.8797007 9.7496,15.0090773 9.7524,16.1147132 C9.7484,16.5735661 9.7484,17.032419 9.7524,17.4912718 C9.7484,17.7306733 9.7484,17.9700748 9.7524,18.2094763 C9.7312,18.2198504 9.6954,18.2248379 9.645,18.2244389 C8.8858,18.2200499 8.137,18.2188529 7.3986,18.2208479 C7.3786,18.2208479 7.3686,18.2108728 7.3686,18.1909227 C7.3654,17.6638404 7.3634,17.126384 7.3626,16.5785536 C7.3666,16.0147631 7.3666,15.4511721 7.3626,14.8877805 C7.3666,13.9002494 7.3666,12.9127182 7.3626,11.925187 C7.3666,11.2716209 7.3666,10.6182544 7.3626,9.96508728 C7.3666,8.55860349 7.3666,7.1521197 7.3626,5.74563591 C7.3606,5.72528678 7.3814,5.71531172 7.425,5.71571072 Z" id="Shape" fill="#FFFFFF"></path>
            <path d="M6.1536,5.75700748 C6.3208,5.76817955 6.4996,5.76937656 6.69,5.7605985 C6.81,5.75900249 6.9162,5.77276808 7.0086,5.80189526 C7.0622,5.82024938 7.1248,5.8242394 7.1964,5.81386534 C7.2164,5.81067332 7.2316,5.81745636 7.242,5.83421446 C7.272,5.88129676 7.2916,5.9367581 7.3008,6.0005985 C7.3036,6.02014963 7.3124,6.03670823 7.3272,6.05027431 C7.3492,6.07660848 7.3568,6.04987531 7.35,5.97007481 C7.3388,5.839202 7.343,5.76438903 7.3626,5.74563591 C7.3666,7.1521197 7.3666,8.55860349 7.3626,9.96508728 C7.3574,10.0393017 7.3532,10.1191022 7.35,10.2044888 C7.3472,10.2727182 7.336,10.2689277 7.3164,10.1931172 C7.3,10.0750125 7.241,10.0269327 7.1394,10.0488778 C7.1198,10.0528678 7.1002,10.0524688 7.0806,10.0476808 C6.9686,10.0381047 6.8634,10.0205486 6.765,9.99501247 C6.625,9.97705736 6.475,9.95710723 6.315,9.93516209 C6.095,9.90523691 5.8848,9.86753117 5.6844,9.82204489 C5.6648,9.81765586 5.645,9.81566085 5.625,9.81605985 C5.4734,9.81885287 5.3284,9.79870324 5.19,9.75561097 C5.1188,9.73326683 5.0788,9.75321696 5.07,9.81546135 C5.0664,9.85137157 5.047,9.86533666 5.0118,9.85735661 C4.8582,9.82184539 4.6976,9.8078803 4.53,9.81546135 C4.4456,9.81905237 4.3448,9.80448878 4.2276,9.77177057 C4.1424,9.74703242 4.0638,9.7605985 3.9918,9.81246883 C3.9714,9.82683292 3.9588,9.83142145 3.954,9.82623441 C3.9404,9.81147132 3.941,9.79750623 3.9558,9.78433915 C3.9802,9.77316708 3.9666,9.76359102 3.915,9.75561097 C3.6366,9.72887781 3.3266,9.70892768 2.985,9.6957606 C2.8462,9.69057357 2.7212,9.67201995 2.61,9.64009975 C2.59,9.63730673 2.587,9.62872818 2.601,9.61436409 C2.6454,9.56887781 2.6284,9.56109726 2.55,9.59102244 C2.4068,9.64568579 2.2726,9.65246883 2.1474,9.61137157 C2.1282,9.60538653 2.1086,9.60179551 2.0886,9.6005985 C1.6078,9.56907731 1.1304,9.56887781 0.6564,9.6 C0.6364,9.60159601 0.6176,9.60698254 0.6,9.6161596 C0.5496,9.64289277 0.4896,9.65446384 0.42,9.65087282 C0.4064,9.65007481 0.398,9.64329177 0.3948,9.63052369 C0.3868,9.55391521 0.3614,9.53456359 0.3186,9.57246883 C0.3122,9.57845387 0.2952,9.54473815 0.2676,9.4713217 C0.526,8.24199501 0.961,7.10483791 1.5726,6.05985037 C1.5794,6.08259352 1.5894,6.09177057 1.6026,6.08738155 C1.6218,6.08139651 1.626,6.08678304 1.6152,6.10354115 C1.5692,6.1753616 1.5862,6.19870324 1.6662,6.17356608 C1.6854,6.16758105 1.705,6.16538653 1.725,6.16698254 C1.881,6.17975062 2.046,6.17895262 2.22,6.16458853 C2.336,6.15501247 2.3764,6.18952618 2.3412,6.26812968 C2.3328,6.28648379 2.3386,6.29526185 2.3586,6.29446384 C2.4762,6.28887781 2.6206,6.25416459 2.7918,6.19032419 C2.8106,6.18314214 2.83,6.17875312 2.85,6.17715711 C3.1448,6.15441397 3.4698,6.15022444 3.825,6.16458853 C3.8886,6.16738155 3.9134,6.14683292 3.8994,6.10294264 C3.8894,6.0638404 3.9046,6.04448878 3.945,6.04488778 C4.2654,6.04688279 4.5542,6.04568579 4.8114,6.04129676 C4.8314,6.04129676 4.85,6.03610973 4.8672,6.02573566 C4.9616,5.94793017 5.0592,5.89945137 5.16,5.88029925 C5.2732,5.85875312 5.3756,5.8246384 5.4672,5.77795511 C5.4848,5.76877805 5.5036,5.76339152 5.5236,5.76179551 C5.7308,5.7446384 5.9408,5.74304239 6.1536,5.75700748 Z" id="Shape" fill="#0B9DF6"></path>
            <path d="M9.807,6.5913217 C9.8242,6.60608479 9.8416,6.61845387 9.8592,6.62842893 C9.8764,6.63840399 9.892,6.63620948 9.906,6.62184539 C9.9352,6.58952618 9.9882,6.58174564 10.065,6.59850374 C10.1598,6.61925187 10.2698,6.639202 10.395,6.65835411 C10.4314,6.66274314 10.4486,6.67650873 10.4466,6.69965087 C10.4446,6.719601 10.4536,6.72798005 10.4736,6.72478803 C10.5876,6.68887781 10.6914,6.68169576 10.785,6.7032419 C10.9814,6.74793017 11.1764,6.78783042 11.37,6.82294264 C11.4748,6.8313217 11.5686,6.84249377 11.6514,6.85645885 C11.6994,6.87640898 11.749,6.8805985 11.8002,6.86902743 C11.9078,6.84389027 11.991,6.82274314 12.0498,6.80558603 C12.069,6.799601 12.0884,6.79860349 12.108,6.80259352 C12.2928,6.83690773 12.4868,6.87361596 12.69,6.9127182 C12.8672,6.94663342 13.0472,6.97157107 13.23,6.98753117 C13.2804,6.99710723 13.3162,7.02204489 13.3374,7.06234414 C12.1486,8.36708229 10.9658,9.66802993 9.789,10.965187 C9.763,10.9935162 9.75,10.9885287 9.75,10.9502244 C9.7488,9.60518703 9.7496,8.26433915 9.7524,6.9276808 C9.7596,6.78244389 9.7686,6.67391521 9.7794,6.60209476 C9.7822,6.58214464 9.7914,6.57855362 9.807,6.5913217 Z" id="Shape" fill="#15A1EF"></path>
            <path d="M14.9136,9.57306733 C15.0436,9.57665835 15.1812,9.60877805 15.3264,9.66942643 C15.3932,9.69735661 15.4544,9.70753117 15.51,9.69995012 C15.53,9.69715711 15.5496,9.69875312 15.5688,9.70473815 C15.7864,9.77336658 15.9706,9.81326683 16.1214,9.8244389 C16.0436,9.84438903 15.9706,9.86014963 15.903,9.87890274 C15.8834,9.88408978 15.8828,9.89087282 15.9012,9.89925187 C16.0204,9.95511222 16.1454,10.00399 16.2762,10.0458853 C16.2954,10.0518703 16.315,10.0538653 16.335,10.0518703 C16.3982,10.0566584 16.4732,10.0726185 16.56,10.0997506 C16.7392,10.155611 16.9204,10.1843392 17.1036,10.1859352 C17.1192,10.1959102 17.1118,10.2058853 17.0814,10.2158603 C16.8734,10.2824938 16.6708,10.3257855 16.4736,10.3457357 C16.4536,10.3489277 16.4344,10.3469327 16.416,10.3397506 C16.2644,10.2818953 16.1036,10.2828928 15.9336,10.3427431 C15.8152,10.3846384 15.6848,10.4219451 15.5424,10.4546633 C15.5232,10.4598504 15.523,10.4662344 15.5418,10.4738155 C15.6582,10.5204988 15.7714,10.5420449 15.8814,10.5384539 C15.9014,10.5376559 15.9208,10.5402494 15.9396,10.5462344 C16.0844,10.5965087 16.2312,10.6322195 16.38,10.6533666 C16.5312,10.6749127 16.6962,10.7098254 16.875,10.7581047 C16.9326,10.7756608 16.9964,10.7824439 17.0664,10.7784539 C16.9516,10.7930175 16.8368,10.8263342 16.722,10.8801995 C16.704,10.8885786 16.685,10.8923691 16.665,10.8915711 C16.5806,10.88798 16.5018,10.9023441 16.4286,10.9346633 C16.4074,10.9442394 16.4074,10.953616 16.4286,10.962793 C16.5258,10.9891272 16.6196,11.0056858 16.71,11.0124688 C16.8092,11.0284289 16.9092,11.0533666 17.01,11.0872818 C17.2644,11.1730673 17.5052,11.1620948 17.7324,11.0543641 C17.7508,11.046384 17.77,11.0417955 17.79,11.0405985 C17.9824,11.0294264 18.1808192,10.7994608 18.3484192,10.7420044 C18.4704192,10.7001091 18.5858,10.8869825 18.7314,10.9113217 C18.8126,10.9173067 18.8988,10.9310723 18.99,10.9526185 C19.2104,11.0052868 19.4256,11.0218454 19.6356,11.0022943 C19.6552,10.9991022 19.6736,10.9923192 19.6908,10.9819451 C19.738,10.95202 19.8044,10.9422444 19.89,10.9526185 C19.9756,10.9462344 20.0518,10.9324688 20.1186,10.9113217 C20.239,10.8738155 20.3666,10.8688279 20.5014,10.8963591 C20.5622,10.9015461 20.6334,10.8953616 20.715,10.8778055 C20.8606,10.8466833 20.9956,10.8317207 21.12,10.8329177 C21.14,10.8329177 21.1596,10.8299252 21.1788,10.8239401 C21.3036,10.7732668 21.434,10.7612968 21.57,10.7880299 C21.706,10.8147631 21.8598,10.8309227 22.0314,10.8365087 C22.1386,10.8329177 22.2388,10.8428928 22.332,10.8664339 C22.3516,10.8716209 22.6585616,10.3750403 22.6781616,10.3706512 C22.8149616,10.3407261 22.709,10.8261347 22.935,10.8329177 C23.2674,10.8424938 23.5762,10.8347132 23.8614,10.8095761 C23.8814,10.807581 23.8964,10.8151621 23.9064,10.8323192 C23.9128,10.8434913 23.9232,10.8337157 23.9376,10.8029925 C23.9632,11.0615461 23.984,11.3470324 24,11.6594514 C24,11.8741147 24,12.0885786 24,12.3028429 C23.9896,12.3024439 23.9846,12.321197 23.985,12.3591022 C23.9894,12.6822943 23.9686,12.9815461 23.9226,13.2568579 C23.9002,13.1970075 23.891,13.201995 23.895,13.2718204 C23.903,13.4106733 23.8833698,13.687403 23.7557698,13.6319417 C23.7237698,13.6315427 23.6403404,13.6251586 23.5519404,13.6319417 C23.1659404,13.6610688 23.0779771,13.6498968 22.8139771,13.6319417 C22.7939771,13.6307447 22.6385102,13.6231636 22.6205102,13.6319417 C22.5449102,13.6690489 22.4282956,13.7545915 22.2994956,13.7462124 C22.1922956,13.7390304 22.1161336,13.6591027 22.0049336,13.6926189 C21.9857336,13.6986039 21.8888,13.6934169 21.8688,13.6926189 C21.75,13.6874319 21.677033,13.7334443 21.595433,13.7462124 C21.575833,13.7494044 21.4661694,13.8775362 21.4597694,13.8587831 C21.4445694,13.8156908 21.2872,14.0103741 21.1788,14.0223441 C21.004,14.0414963 20.9755515,13.9868711 20.8591515,13.9445768 C20.8403515,13.9377937 20.522304,14.4457811 20.597904,13.8353073 C20.379504,13.8732125 20.5685445,14.1843783 20.3265445,14.2218846 C20.1917445,14.2426327 19.6163357,14.3178779 19.4975357,14.3681522 C19.4787357,14.3745363 18.5590486,14.4113716 18.99,14.0385037 C19.1365482,13.9117073 19.0414,14.2366477 18.7314,14.2218846 C18.7114,14.2210866 18.4084,14.0295262 18.39,14.0223441 C18.288,13.9816459 18.3010555,13.8109028 18.1914555,13.8587831 C18.0594555,13.9162395 17.8512216,13.681418 17.6748216,13.6319417 C17.6556216,13.6263556 17.3696138,13.4824938 17.6082303,13.4824938 C17.6470303,13.4733167 17.5478303,13.4461845 17.6082303,13.4022943 C17.6246303,13.3903242 17.6944216,13.4870823 17.6748216,13.4818953 C17.4460216,13.4300249 17.6261643,13.593217 17.4569643,13.5680798 C17.2601643,13.5385536 17.2526,13.7365092 17.0814,13.6926189 C17.0618,13.6886289 16.8942,13.5840399 16.875,13.5896259 C16.6762,13.6458853 16.829,13.6668109 16.665,13.7462124 C16.647,13.7545915 16.3318,13.9278187 16.3206,13.9445768 C16.2678,14.0215843 16.167,13.5178055 16.1058,13.4818953 C16.0886,13.4715212 16.0716,13.4717207 16.0548,13.4824938 C15.986,13.525187 15.9202,13.5557107 15.8574,13.5740648 C15.8382,13.5796509 15.82,13.5776559 15.8028,13.5680798 C15.6996,13.5201995 15.5932,13.5273815 15.4836,13.5896259 C15.1908,13.7396509 14.8934,13.8868828 14.5914,14.0313217 C14.5242,14.0632419 14.4578,14.0656359 14.3922,14.0385037 C14.375,14.0285287 14.3564,14.0249377 14.3364,14.0277307 C14.2684,14.0373067 14.1846,14.0355112 14.085,14.0223441 C13.3762,13.2973566 12.67,12.5695761 11.9664,11.8390025 C11.9208,11.7919202 11.9206,11.7448379 11.9658,11.6977556 C12.6666,10.965985 13.3572,10.2338155 14.0376,9.50124688 C14.0524,9.54713217 14.0632,9.56708229 14.07,9.56109726 C14.1052,9.53037406 14.1256,9.50942643 14.1312,9.49825436 C14.1404,9.48029925 14.155,9.47012469 14.175,9.46773067 C14.3794,9.44259352 14.6062,9.47411471 14.8554,9.56229426" id="Shape" fill="#3791EF"></path>
            <path d="M0.2676,9.4713217 C0.2952,9.54473815 0.3122,9.57845387 0.3186,9.57246883 C0.3614,9.53456359 0.3868,9.55391521 0.3948,9.63052369 C0.398,9.64329177 0.4064,9.65007481 0.42,9.65087282 C0.4896,9.65446384 0.5496,9.64289277 0.6,9.6161596 C0.6176,9.60698254 0.6364,9.60159601 0.6564,9.6 C1.1304,9.56887781 1.6078,9.56907731 2.0886,9.6005985 C2.1086,9.60179551 2.1282,9.60538653 2.1474,9.61137157 C2.2726,9.65246883 2.4068,9.64568579 2.55,9.59102244 C2.6284,9.56109726 2.6454,9.56887781 2.601,9.61436409 C2.587,9.62872818 2.59,9.63730673 2.61,9.64009975 C2.7212,9.67201995 2.8462,9.69057357 2.985,9.6957606 C3.3266,9.70892768 3.6366,9.72887781 3.915,9.75561097 C3.9666,9.76359102 3.9802,9.77316708 3.9558,9.78433915 C3.941,9.79750623 3.9404,9.81147132 3.954,9.82623441 C3.9588,9.83142145 3.9714,9.82683292 3.9918,9.81246883 C4.0638,9.7605985 4.1424,9.74703242 4.2276,9.77177057 C4.3448,9.80448878 4.4456,9.81905237 4.53,9.81546135 C4.6976,9.8078803 4.8582,9.82184539 5.0118,9.85735661 C5.047,9.86533666 5.0664,9.85137157 5.07,9.81546135 C5.0788,9.75321696 5.1188,9.73326683 5.19,9.75561097 C5.3284,9.79870324 5.4734,9.81885287 5.625,9.81605985 C5.645,9.81566085 5.6648,9.81765586 5.6844,9.82204489 C5.8848,9.86753117 6.095,9.90523691 6.315,9.93516209 C6.475,9.95710723 6.625,9.97705736 6.765,9.99501247 C6.8634,10.0205486 6.9686,10.0381047 7.0806,10.0476808 C7.1002,10.0524688 7.1198,10.0528678 7.1394,10.0488778 C7.241,10.0269327 7.3,10.0750125 7.3164,10.1931172 C7.336,10.2689277 7.3472,10.2727182 7.35,10.2044888 C7.3532,10.1191022 7.3574,10.0393017 7.3626,9.96508728 C7.3666,10.6182544 7.3666,11.2716209 7.3626,11.925187 C7.3546,11.9487282 7.3504,12.0135661 7.35,12.1197007 C7.35,12.166384 7.345,12.1763591 7.335,12.1496259 C7.3214,12.0674314 7.3076,11.9986035 7.2936,11.9431421 C7.2888,11.923591 7.2776,11.9090274 7.26,11.8994514 C7.1268,11.8200499 7.008,11.8148628 6.9036,11.8838903 C6.8396,11.9265835 6.7628,11.9772569 6.6732,12.0359102 C6.6548,12.0450873 6.6354,12.0480798 6.615,12.0448878 C6.5406,12.0333167 6.4756,12.0183541 6.42,12 C6.3704,11.9836409 6.3254,11.99202 6.285,12.0251372 C6.203,12.0841895 6.1118,12.0969576 6.0114,12.0634414 C5.8838,12.0199501 5.76,11.9888279 5.64,11.9700748 C5.5124,11.9505237 5.4192,11.9730673 5.3604,12.0377057 C5.3468,12.0524688 5.331,12.0642394 5.313,12.0730175 C5.177,12.1388529 5.0546,12.2212469 4.9458,12.3201995 C4.931,12.3337656 4.9328,12.3445387 4.9512,12.3525187 C5.0368,12.3908229 5.1452,12.4191521 5.2764,12.4375062 C5.4748,12.4654364 5.6772,12.5029426 5.8836,12.5500249 C5.8988,12.554414 5.9,12.5609975 5.8872,12.5697756 C5.7652,12.6551621 5.6478,12.7423441 5.535,12.8313217 C5.521,12.8420948 5.5226,12.8496758 5.5398,12.8540648 C5.6646,12.885586 5.7572,12.9109227 5.8176,12.9300748 C5.8368,12.9360599 5.8378,12.9440399 5.8206,12.954015 C5.7682,12.9839401 5.7092,13.0212469 5.6436,13.0659352 C5.6152,13.0854863 5.6164,13.1030424 5.6472,13.1186035 C5.7248,13.1569077 5.8024,13.1730673 5.88,13.1670823 C5.918,13.1642893 5.9212,13.1734663 5.8896,13.1946135 C5.6864,13.3298753 5.5258,13.4487781 5.4078,13.5513217 C5.3926,13.5644888 5.3752,13.5692768 5.3556,13.5656858 C5.3416,13.5632918 5.2876,13.5539152 5.1936,13.5375561 C5.026,13.5076309 4.8696,13.4761097 4.7244,13.4429925 C4.7048,13.4386035 4.7016,13.4288279 4.7148,13.4136658 C4.7312,13.3945137 4.7468,13.3759601 4.7616,13.358005 C4.7748,13.3428429 4.7722,13.3310723 4.7538,13.3226933 C4.6778,13.287182 4.5882,13.2742145 4.485,13.2837905 C4.465,13.2857855 4.4456,13.2833915 4.4268,13.2766085 C4.35,13.2482793 4.25,13.2245387 4.1268,13.2053865 C4.0792,13.1978055 4.0348,13.2061845 3.9936,13.2305237 C3.9176,13.275611 3.844,13.3238903 3.7728,13.3753616 C3.7476,13.3933167 3.72,13.3987032 3.69,13.3915212 C3.5216,13.3508229 3.3614,13.3175062 3.2094,13.2915711 C3.1898,13.2883791 3.17,13.287581 3.15,13.2891771 C2.998,13.2999501 2.8732,13.28 2.7756,13.2293267 C2.7576,13.2201496 2.7572,13.2105736 2.7744,13.2005985 C2.8024,13.1842394 2.8278,13.1694763 2.8506,13.1563092 C2.8678,13.1459352 2.8666,13.1381546 2.847,13.1329676 C2.5742,13.0571571 2.2702,13.0280299 1.935,13.045586 C1.915,13.046783 1.8956,13.0437905 1.8768,13.0366085 C1.664,12.956808 1.4526,12.9613965 1.2426,13.0503741 C1.2242,13.0583541 1.205,13.0617456 1.185,13.0605486 C0.9286,13.0409975 0.6186,13.0366085 0.255,13.0473815 C0.133,13.0509726 0.0802,13.0022943 0.0966,12.9013466 C0.0998,12.8813965 0.0982,12.8620449 0.0918,12.8432918 C0.0578,12.7363591 0.0414,12.7495262 0.0426,12.882793 C0.0258,12.6876808 0.0116,12.4869825 0,12.2806983 C0,12.0712219 0,11.8617456 0,11.6522693 C0.0092,11.6442893 0.0142,11.6105736 0.015,11.5511222 C0.0238,10.8576559 0.108,10.164389 0.2676,9.4713217 Z" id="Shape" fill="#1481F5"></path>
            <path d="M7.2936,11.9431421 C7.3076,11.9986035 7.3214,12.0674314 7.335,12.1496259 C7.345,12.1763591 7.35,12.166384 7.35,12.1197007 C7.3504,12.0135661 7.3546,11.9487282 7.3626,11.925187 C7.3666,12.9127182 7.3666,13.9002494 7.3626,14.8877805 C7.363,15.0725187 7.3526,15.1660848 7.3314,15.1684788 C7.3198,15.1696758 7.3108,15.1547132 7.3044,15.123591 C7.3024,15.1435411 7.3004,15.1435411 7.2984,15.123591 C7.2912,15.0617456 7.2396,15.0417955 7.1436,15.0637406 C7.108,15.0721197 7.0778,15.1002494 7.053,15.1481297 C7.041,15.1640898 7.044,15.1762594 7.062,15.1846384 C7.1088,15.2057855 7.106,15.2173566 7.0536,15.2193516 C7.0336,15.2201496 7.0156,15.2265337 6.9996,15.2385037 C6.9384,15.281197 6.869,15.2801995 6.7914,15.2355112 C6.7218,15.195611 6.6592,15.2155611 6.6036,15.2953616 C6.5888,15.3169077 6.5692,15.3230923 6.5448,15.3139152 C6.3412,15.2468828 6.1308,15.1784539 5.9136,15.1086284 C5.768,15.0615461 5.6526,15.0483791 5.5674,15.0691272 C5.5482,15.0755112 5.545,15.0709227 5.5578,15.0553616 C5.643,14.953616 5.7562,14.8476808 5.8974,14.7375561 C5.9134,14.725586 5.9124,14.7150125 5.8944,14.7058354 C5.7904,14.6543641 5.6356,14.6102743 5.43,14.5735661 C5.3916,14.566783 5.3898,14.5546135 5.4246,14.5370574 C5.4542,14.5218953 5.4786,14.5057357 5.4978,14.4885786 C5.5126,14.4754115 5.5112,14.4640399 5.4936,14.4544638 C5.3652,14.3834414 5.229,14.3527182 5.085,14.3622943 C5.065,14.3634913 5.0456,14.3606983 5.0268,14.3539152 C4.9072,14.3092269 4.7964,14.2749127 4.6944,14.2509726 C4.6748,14.2465835 4.6554,14.2469825 4.6362,14.2521696 C4.4762,14.2944638 4.311,14.3986035 4.1406,14.5645885 C4.0934,14.6104738 4.0378,14.6256359 3.9738,14.6100748 C3.8506,14.5801496 3.757,14.5949127 3.693,14.6543641 C3.6786,14.6679302 3.6622,14.6785037 3.6438,14.6860848 C3.4758,14.7587032 3.3874,14.7848379 3.3786,14.7644888 C3.373,14.7505237 3.4138,14.720399 3.501,14.6741147 C3.5146,14.6593516 3.5118,14.6489776 3.4926,14.6429925 C3.387,14.6098753 3.2578,14.5919202 3.105,14.5891272 C3.085,14.5887282 3.0654,14.5855362 3.0462,14.5795511 C2.8398,14.5157107 2.6294,14.4837905 2.415,14.4837905 C2.395,14.4837905 2.3754,14.480798 2.3562,14.474813 C2.251,14.4420948 2.1368,14.4199501 2.0136,14.4083791 C1.9936,14.406384 1.9922,14.4 2.0094,14.3892269 C2.041,14.3688778 2.0822,14.3473317 2.133,14.3245885 C2.1434,14.3198005 2.1434,14.3154115 2.133,14.3114214 C1.9882,14.2643392 1.8322,14.241995 1.665,14.244389 C1.495,14.246783 1.34,14.2318204 1.2,14.1995012 C0.9912,14.1747631 0.7762,14.1697756 0.555,14.1845387 C0.4214,14.1933167 0.338,14.1681796 0.3048,14.1091272 C0.294,14.0919701 0.281,14.0899751 0.2658,14.1031421 C0.2466,14.1195012 0.238,14.1167082 0.24,14.0947631 C0.2488,14.0037905 0.2296,13.9938155 0.1824,14.0648379 C0.1072,13.6215461 0.0606,13.2275312 0.0426,12.882793 C0.0414,12.7495262 0.0578,12.7363591 0.0918,12.8432918 C0.0982,12.8620449 0.0998,12.8813965 0.0966,12.9013466 C0.0802,13.0022943 0.133,13.0509726 0.255,13.0473815 C0.6186,13.0366085 0.9286,13.0409975 1.185,13.0605486 C1.205,13.0617456 1.2242,13.0583541 1.2426,13.0503741 C1.4526,12.9613965 1.664,12.956808 1.8768,13.0366085 C1.8956,13.0437905 1.915,13.046783 1.935,13.045586 C2.2702,13.0280299 2.5742,13.0571571 2.847,13.1329676 C2.8666,13.1381546 2.8678,13.1459352 2.8506,13.1563092 C2.8278,13.1694763 2.8024,13.1842394 2.7744,13.2005985 C2.7572,13.2105736 2.7576,13.2201496 2.7756,13.2293267 C2.8732,13.28 2.998,13.2999501 3.15,13.2891771 C3.17,13.287581 3.1898,13.2883791 3.2094,13.2915711 C3.3614,13.3175062 3.5216,13.3508229 3.69,13.3915212 C3.72,13.3987032 3.7476,13.3933167 3.7728,13.3753616 C3.844,13.3238903 3.9176,13.275611 3.9936,13.2305237 C4.0348,13.2061845 4.0792,13.1978055 4.1268,13.2053865 C4.25,13.2245387 4.35,13.2482793 4.4268,13.2766085 C4.4456,13.2833915 4.465,13.2857855 4.485,13.2837905 C4.5882,13.2742145 4.6778,13.287182 4.7538,13.3226933 C4.7722,13.3310723 4.7748,13.3428429 4.7616,13.358005 C4.7468,13.3759601 4.7312,13.3945137 4.7148,13.4136658 C4.7016,13.4288279 4.7048,13.4386035 4.7244,13.4429925 C4.8696,13.4761097 5.026,13.5076309 5.1936,13.5375561 C5.2876,13.5539152 5.3416,13.5632918 5.3556,13.5656858 C5.3752,13.5692768 5.3926,13.5644888 5.4078,13.5513217 C5.5258,13.4487781 5.6864,13.3298753 5.8896,13.1946135 C5.9212,13.1734663 5.918,13.1642893 5.88,13.1670823 C5.8024,13.1730673 5.7248,13.1569077 5.6472,13.1186035 C5.6164,13.1030424 5.6152,13.0854863 5.6436,13.0659352 C5.7092,13.0212469 5.7682,12.9839401 5.8206,12.954015 C5.8378,12.9440399 5.8368,12.9360599 5.8176,12.9300748 C5.7572,12.9109227 5.6646,12.885586 5.5398,12.8540648 C5.5226,12.8496758 5.521,12.8420948 5.535,12.8313217 C5.6478,12.7423441 5.7652,12.6551621 5.8872,12.5697756 C5.9,12.5609975 5.8988,12.554414 5.8836,12.5500249 C5.6772,12.5029426 5.4748,12.4654364 5.2764,12.4375062 C5.1452,12.4191521 5.0368,12.3908229 4.9512,12.3525187 C4.9328,12.3445387 4.931,12.3337656 4.9458,12.3201995 C5.0546,12.2212469 5.177,12.1388529 5.313,12.0730175 C5.331,12.0642394 5.3468,12.0524688 5.3604,12.0377057 C5.4192,11.9730673 5.5124,11.9505237 5.64,11.9700748 C5.76,11.9888279 5.8838,12.0199501 6.0114,12.0634414 C6.1118,12.0969576 6.203,12.0841895 6.285,12.0251372 C6.3254,11.99202 6.3704,11.9836409 6.42,12 C6.4756,12.0183541 6.5406,12.0333167 6.615,12.0448878 C6.6354,12.0480798 6.6548,12.0450873 6.6732,12.0359102 C6.7628,11.9772569 6.8396,11.9265835 6.9036,11.8838903 C7.008,11.8148628 7.1268,11.8200499 7.26,11.8994514 C7.2776,11.9090274 7.2888,11.923591 7.2936,11.9431421 Z" id="Shape" fill="#1C6FF1"></path>
            <path d="M9.777,12.7158105 C11.103,14.0951621 12.4298,15.4824938 13.7574,16.8778055 C13.7486,16.8965586 13.8189951,16.9670551 13.8237951,17.0057583 C13.8253951,17.0193244 13.8101364,17.1143043 13.7909364,17.1530076 C13.7609364,17.2136559 13.7874,17.3135162 13.725,17.275212 C13.689,17.2531338 13.6978,17.2531338 13.7514,17.275212 C13.6940106,17.3168412 13.6686492,17.3433749 13.6753159,17.354813 C13.6989159,17.3963092 13.5904,17.5193934 13.5864,17.5580967 C13.5844,17.5780468 13.4140155,17.6952242 13.3980155,17.7071942 C13.3204155,17.7670446 13.3131744,17.6643101 13.2235744,17.7504946 C13.2091744,17.7644597 13.2423744,17.6812287 13.2235744,17.6740467 C13.1931744,17.6624756 13.157212,17.6856177 13.127612,17.6740467 C13.108812,17.6668646 13.0958,17.6928302 13.0818,17.7071942 C13.0386,17.7502865 12.9668115,17.7941147 12.9232115,17.837207 C12.9092115,17.8515711 12.3975431,17.8281627 12.6015431,17.7071942 C12.5599431,17.660511 12.6576,17.5896179 12.5664,17.5580967 C12.5472,17.5517126 12.5189471,17.4699567 12.5349471,17.4575877 C12.5513471,17.4452186 12.5823431,17.4783358 12.6015431,17.4575877 C12.6151431,17.4432236 12.4848862,17.3952308 12.6015431,17.3952308 C12.5747431,17.3301934 12.6408,17.3763591 12.5664,17.354813 C12.4844,17.3312718 12.3986279,17.5848298 12.3482279,17.5580967 C12.3306279,17.5485206 12.2941429,17.4436226 12.2797429,17.4575877 C12.1529429,17.5788844 12.200058,17.5707354 12.083658,17.7071942 C12.071258,17.7215583 11.9331816,17.7143763 11.9155816,17.7071942 C11.7507816,17.6385658 11.6931986,17.6375062 11.5955986,17.5840399 C11.5779986,17.5744638 11.5272,17.6127681 11.5164,17.6295262 C11.4848,17.6774065 11.497,17.8156608 11.4738,17.837207 C11.4594,17.8507731 11.3934283,17.913616 11.3778283,17.9012469 C11.3530283,17.8820948 11.2956,17.6359102 11.2656,17.6307232 C11.246,17.6275312 11.2534134,17.6932292 11.2390134,17.7071942 C11.1294134,17.8141269 11.127,17.659522 11.0802,17.7504946 C11.071,17.7680507 11.1486,17.7829426 11.1654,17.7941147 C11.1954,17.8136658 11.1934,17.8479507 11.2194,17.8710929 C11.2342,17.884659 11.091,18.0460848 11.0802,18.0628429 C11.0482,18.1135162 11.0416918,18.0706234 10.9516918,18.0179551 C10.9344918,18.00798 10.9188742,18.0472818 10.9060742,18.0628429 C10.8792742,18.0943641 10.9232,18.2476861 10.8972,18.2820003 C10.8852,18.2979604 10.8484,18.1809069 10.83,18.1729269 C10.806,18.1629518 10.711865,18.192877 10.674265,18.1729269 C10.656665,18.1633508 10.7402,18.241596 10.7274,18.2567581 C10.6566,18.3405486 10.7054,18.3367069 10.635,18.4456346 C10.6242,18.4623927 10.3568683,18.6639857 10.3396683,18.6536116 C10.2964683,18.6284745 10.0444,18.4437923 9.9972,18.4234431 C9.8856,18.3747648 10.0205242,18.2994514 9.92212422,18.2567581 C9.86932422,18.234015 9.929,18.3152455 9.9498,18.3679138 C9.9594,18.3854699 9.857,18.5260031 9.837,18.523609 C9.7982,18.518821 9.7596,18.5040579 9.7524,18.523609 C9.7484,18.2842075 9.7484,17.7306733 9.7524,17.4912718 C9.7816,17.4457855 9.792,17.3909227 9.7836,17.3266833 C9.7812,17.3067332 9.7868,17.2895761 9.8004,17.275212 C9.8104,17.2648379 9.815,17.280798 9.8142,17.3230923 C9.8138,17.3430424 9.823,17.3494264 9.8418,17.3422444 C9.8886,17.3250873 9.86330024,17.1758498 9.90410024,17.201386 C9.94730024,17.2285182 9.966,17.1929078 9.9972,17.1530076 C10.1372,16.9734564 9.98127964,17.0707585 10.1236796,16.9139506 C10.1608796,16.8724543 10.3583759,16.8359102 10.3031759,16.8311222 C10.2011759,16.8191521 10.2528683,16.6681553 10.3396683,16.6102999 C10.3724683,16.5887538 10.4078,16.4946223 10.4586,16.5301335 C10.4014326,16.3823618 10.5904815,16.5425026 10.6064815,16.5301335 C10.6304815,16.5117794 10.6883464,16.4854452 10.7567464,16.5301335 C10.7735464,16.5409066 10.8244029,16.5983299 10.8084029,16.6102999 C10.7940029,16.621073 10.7772,16.5459177 10.83,16.5706558 C10.8816,16.6073641 10.8812,16.5798329 10.8972,16.5706558 C10.9496,16.5399326 10.9711771,16.6567937 11.0027771,16.5881653 C11.0111771,16.5702102 11.061,16.5646708 11.0802,16.5706558 C11.1186,16.5822269 11.0955732,16.5499077 11.1375732,16.5706558 C11.1555732,16.5798329 11.1863425,16.5456946 11.1991425,16.5301335 C11.3575425,16.3430014 11.1654004,16.3895111 11.2910004,16.2877655 C11.3066004,16.2753964 11.4326925,16.2494059 11.4178925,16.2358398 C11.3354925,16.1608274 11.3494,16.1781379 11.0802,16.0939484 C11.0294,16.0779883 10.8844177,16.0220952 10.9288177,15.992569 C10.9472177,15.9801999 10.9492742,15.9360702 10.9060742,15.9352722 C10.8860742,15.9348732 10.8464,15.9287441 10.83,15.917572 C10.7312,15.8505396 10.764665,15.9341852 10.674265,15.8759308 C10.657465,15.8651577 10.5809283,15.8068828 10.5609283,15.8052868 C10.4421283,15.7965087 10.4902544,15.7739651 10.3926544,15.7352618 C10.3218544,15.7073317 10.3812683,15.8124894 10.3396683,15.8759308 C10.2796683,15.9673024 10.1226299,15.9548754 10.0262299,15.8994141 C10.0090299,15.889439 9.93652422,15.885449 9.92212422,15.8994141 C9.88572422,15.9357233 9.859,15.9517689 9.8142,15.9621429 C9.7946,15.966532 9.7968,15.8020948 9.7932,15.7825436 C9.7844,15.7334663 9.78,15.7394514 9.78,15.8004988 C9.78,15.9217955 9.7708,16.0265337 9.7524,16.1147132 C9.7496,15.0090773 9.7488,13.8797007 9.75,12.7265835 C9.75,12.7006484 9.759,12.6970574 9.777,12.7158105 Z" id="Shape" fill="#3B6FED"></path>
            <path d="M16.923,13.1766584 C17.0942,13.2205486 17.2782,13.2572569 17.475,13.286783 C17.6442,13.3119202 17.8432,13.3504239 18.072,13.4022943 C18.0916,13.4074813 18.0932,13.4160599 18.0768,13.4280299 C18.0164,13.4719202 17.9668,13.4984539 17.928,13.5076309 C17.9084,13.512419 17.9082,13.517606 17.9274,13.523192 C18.1038,13.5726683 18.258,13.5686783 18.39,13.5112219 C18.4996,13.4633416 18.6054,13.4597506 18.7074,13.5004489 C18.7258,13.5076309 18.745,13.5116209 18.765,13.512419 C19.075,13.527182 19.3742,13.5728678 19.6626,13.6494763 C19.6818,13.6546633 19.7008,13.6540648 19.7196,13.6476808 C19.8384,13.5974065 19.9652,13.5618953 20.1,13.5411471 C20.342,13.5036409 20.5722,13.4659352 20.7906,13.4280299 C20.8102,13.4236409 20.8294,13.4248379 20.8482,13.4316209 C20.9646,13.4739152 21.1102,13.4854863 21.285,13.4663342 C21.3934,13.4543641 21.4552,13.4699252 21.4704,13.5130175 C21.4768,13.5317706 21.4898,13.5395511 21.5094,13.5363591 C21.591,13.523591 21.6912,13.5198005 21.81,13.5249875 C21.83,13.5257855 21.8496,13.523192 21.8688,13.517207 C21.98,13.4836908 22.0892,13.4705237 22.1964,13.4777057 C22.3252,13.4860848 22.4274,13.4717207 22.503,13.4346135 C22.521,13.4258354 22.54,13.4220449 22.56,13.4232419 C22.824,13.441197 23.149,13.435611 23.535,13.4064838 C23.6234,13.3997007 23.6836,13.3965087 23.7156,13.3969077 C23.8432,13.4523691 23.903,13.4106733 23.895,13.2718204 C23.891,13.201995 23.9002,13.1970075 23.9226,13.2568579 C23.8686,13.8573566 23.7544,14.4716209 23.58,15.0996509 C23.5572,15.0884788 23.546,15.0804988 23.5464,15.0757107 C23.552,15.0390025 23.4782768,15.2226655 23.4406768,15.2238625 C23.2106768,15.2390246 23.1167338,15.2489996 22.9711338,15.2238625 C22.9051338,15.2122914 22.8082684,15.2146854 22.7418684,15.2238625 C22.5010684,15.2841119 22.345103,15.4581546 22.125903,15.4713217 C22.105903,15.4725187 21.9936926,15.3290773 21.9736926,15.3258853 C21.6220926,15.2660349 21.3317838,15.4922693 21.0133838,15.5904239 C20.8217838,15.6494763 20.6508803,15.52798 20.4448803,15.4713217 C20.2688803,15.4238404 20.2216,15.4767082 20.1,15.5365586 C19.9692,15.606384 19.7242,15.758803 19.6626,15.7364589 C19.517,15.6833915 19.4099954,15.4569576 19.2095954,15.4713217 C19.1479954,15.4757107 18.9913516,15.6392515 18.9465516,15.6811467 C18.8897516,15.7338151 18.8761521,15.7324688 18.8297521,15.7149127 C18.7445521,15.6825935 18.7742,15.5666748 18.7074,15.6285202 C18.6402,15.6696174 18.526498,15.5740648 18.431298,15.5904239 C18.366498,15.601596 18.3114028,15.5537157 18.2814028,15.5904239 C18.2638028,15.6 18.1628914,15.8984539 18.1432914,15.8944638 C18.0356914,15.8745137 17.9204,15.4948628 17.79,15.4713217 C17.724,15.4593516 17.5538527,15.4968579 17.6322527,15.4713217 C17.6710527,15.4589526 17.6154527,15.4557455 17.6322527,15.4258203 C17.6418527,15.4082642 17.6322527,15.4242175 17.8764,15.3258853 C18.1205473,15.2275531 17.7406527,15.5772569 17.6322527,15.5365586 C17.5694527,15.5126185 17.5688171,15.4942643 17.5160171,15.5365586 C17.4504171,15.5888279 17.4527855,15.761995 17.2807855,15.7364589 C17.2187855,15.7272818 16.9722,15.3430424 16.929,15.3881297 C16.865,15.4547631 16.8154,15.5221945 16.7802,15.5904239 C16.771,15.6083791 16.9482,15.8996509 16.929,15.9052369 C16.849,15.9287781 16.6014,15.6790025 16.569,15.7149127 C16.5554,15.7296758 16.5586,15.7368579 16.5786,15.7364589 C16.6406,15.7352618 16.6694,15.7466334 16.665,15.7705736 C16.655,15.8224439 16.6356,15.8637406 16.6068,15.8944638 C16.5932,15.9092269 16.5772,15.912818 16.5588,15.9052369 C16.5076,15.8824938 16.4492,15.8986534 16.3836,15.9537157 C16.314,16.0123691 16.2516,16.0564589 16.1964,16.085985 C16.1788,16.0951621 16.1768,16.1071322 16.1904,16.1218953 C16.2184,16.1530175 16.2066,16.166384 16.155,16.161995 C15.461,15.4621446 14.771,14.7489277 14.085,14.0223441 C14.1846,14.0355112 14.2684,14.0373067 14.3364,14.0277307 C14.3564,14.0249377 14.375,14.0285287 14.3922,14.0385037 C14.4578,14.0656359 14.5242,14.0632419 14.5914,14.0313217 C14.8934,13.8868828 15.1908,13.7396509 15.4836,13.5896259 C15.5932,13.5273815 15.6996,13.5201995 15.8028,13.5680798 C15.82,13.5776559 15.8382,13.5796509 15.8574,13.5740648 C15.9202,13.5557107 15.986,13.525187 16.0548,13.4824938 C16.0716,13.4717207 16.0886,13.4715212 16.1058,13.4818953 C16.167,13.5178055 16.224,13.4972569 16.2768,13.4202494 C16.288,13.4034913 16.3026,13.3909227 16.3206,13.3825436 C16.4846,13.3031421 16.666,13.2353117 16.8648,13.1790524 C16.884,13.1734663 16.9034,13.1726683 16.923,13.1766584 Z" id="Shape" fill="#4C83F2"></path>
            <path d="M0.24,14.0947631 C0.238,14.1167082 0.2466,14.1195012 0.2658,14.1031421 C0.281,14.0899751 0.294,14.0919701 0.3048,14.1091272 C0.338,14.1681796 0.4214,14.1933167 0.555,14.1845387 C0.7762,14.1697756 0.9912,14.1747631 1.2,14.1995012 C1.34,14.2318204 1.495,14.246783 1.665,14.244389 C1.8322,14.241995 1.9882,14.2643392 2.133,14.3114214 C2.0822,14.3473317 2.041,14.3688778 2.0094,14.3892269 C1.9922,14.4 1.9936,14.406384 2.0136,14.4083791 C2.1368,14.4199501 2.251,14.4420948 2.3562,14.474813 C2.3754,14.480798 2.395,14.4837905 2.415,14.4837905 C2.6294,14.4837905 2.8398,14.5157107 3.0462,14.5795511 C3.0654,14.5855362 3.085,14.5887282 3.105,14.5891272 C3.2578,14.5919202 3.387,14.6098753 3.4926,14.6429925 C3.5118,14.6489776 3.5146,14.6593516 3.501,14.6741147 C3.4138,14.720399 3.373,14.7505237 3.3786,14.7644888 C3.3874,14.7848379 3.4758,14.7587032 3.6438,14.6860848 C3.6622,14.6785037 3.6786,14.6679302 3.693,14.6543641 C3.757,14.5949127 3.8506,14.5801496 3.9738,14.6100748 C4.0378,14.6256359 4.0934,14.6104738 4.1406,14.5645885 C4.311,14.3986035 4.4762,14.2944638 4.6362,14.2521696 C4.6554,14.2469825 4.6748,14.2465835 4.6944,14.2509726 C4.7964,14.2749127 4.9072,14.3092269 5.0268,14.3539152 C5.0456,14.3606983 5.065,14.3634913 5.085,14.3622943 C5.229,14.3527182 5.3652,14.3834414 5.4936,14.4544638 C5.5112,14.4640399 5.5126,14.4754115 5.4978,14.4885786 C5.4786,14.5057357 5.4542,14.5218953 5.4246,14.5370574 C5.3898,14.5546135 5.3916,14.566783 5.43,14.5735661 C5.6356,14.6102743 5.7904,14.6543641 5.8944,14.7058354 C5.9124,14.7150125 5.9134,14.725586 5.8974,14.7375561 C5.7562,14.8476808 5.643,14.953616 5.5578,15.0553616 C5.545,15.0709227 5.5482,15.0755112 5.5674,15.0691272 C5.6526,15.0483791 5.768,15.0615461 5.9136,15.1086284 C6.1308,15.1784539 6.3412,15.2468828 6.5448,15.3139152 C6.5692,15.3230923 6.5888,15.3169077 6.6036,15.2953616 C6.6592,15.2155611 6.7218,15.195611 6.7914,15.2355112 C6.869,15.2801995 6.9384,15.281197 6.9996,15.2385037 C7.0156,15.2265337 7.0336,15.2201496 7.0536,15.2193516 C7.106,15.2173566 7.1088,15.2057855 7.062,15.1846384 C7.044,15.1762594 7.041,15.1640898 7.053,15.1481297 C7.0778,15.1002494 7.108,15.0721197 7.1436,15.0637406 C7.2396,15.0417955 7.2912,15.0617456 7.2984,15.123591 C7.3108,15.1547132 7.3198,15.1696758 7.3314,15.1684788 C7.3526,15.1660848 7.363,15.0725187 7.3626,14.8877805 C7.3666,15.4511721 7.3666,16.0147631 7.3626,16.5785536 C7.3574,16.7050374 7.352,16.7686783 7.3464,16.7694763 C7.3384,16.7702743 7.20914191,16.7751759 7.18034191,16.5992158 C7.17714191,16.5796647 7.26411396,16.6020088 7.24411396,16.5992158 C7.21811396,16.5956248 7.1828,16.6382045 7.1436,16.6198504 C7.0552,16.5779551 7.06742513,16.5460349 7.02982513,16.6198504 C7.02102513,16.6378055 6.9563817,16.7112397 6.9375817,16.7176237 C6.8307817,16.754731 6.74244619,16.74863 6.68284619,16.745837 C6.66284619,16.745039 6.3278,16.7323868 6.3414,16.7176237 C6.3734,16.6821125 6.46126239,16.5494264 6.46086239,16.5246883 C6.46086239,16.5047382 6.4314371,16.4672319 6.4118371,16.4624439 C6.2238371,16.4185536 6.31892514,16.5237082 6.10652514,16.4227605 C5.99492514,16.3696932 6.05092749,16.3243502 5.97612749,16.3506843 C5.95732749,16.3574674 5.8128,16.5082057 5.8068,16.5273578 C5.7864,16.5896022 5.74364435,16.4969576 5.62884435,16.4402993 C5.56924435,16.4111721 5.4804,16.4548628 5.4396,16.5067332 C5.4388,16.5075312 5.4606,16.4213466 5.3586,16.5067332 C5.3242,16.5354613 5.3974,16.6417955 5.3586,16.6198504 C5.2966,16.5851372 5.1596,16.5079302 5.118,16.5246883 C5.0992,16.5318703 5.05486312,16.5601995 5.04646312,16.5785536 C5.01286312,16.6491771 5.0104,16.6814963 4.956,16.641995 C4.94,16.6300249 4.844,16.642394 4.824,16.641995 C4.67,16.64 4.70291233,16.5641579 4.60291233,16.6870506 C4.85011233,16.7949986 4.4632,16.7558121 4.4436,16.745837 C4.3464,16.6951637 4.32801043,16.6667015 4.25441043,16.6870506 C4.23521043,16.6922377 4.3518,16.7543142 4.3386,16.7694763 C4.3082,16.8029925 4.0582,16.7782544 4.017,16.7694763 C3.7846,16.721596 3.83656612,16.643591 3.72576612,16.7904239 C3.71376612,16.806384 3.7548,16.7840399 3.774,16.7904239 C3.9564,16.8530673 3.803,16.9434414 4.017,16.9945137 C4.0366,16.9989027 4.3098,16.7704738 4.3098,16.7904239 C4.3098,16.794015 4.42333891,16.9174097 4.41093891,16.9333698 C4.50793891,16.9102276 4.2158,17.0511721 4.3098,17.1142145 C4.3314,17.1289776 4.6558,17.1385634 4.6362,17.1553216 C4.5662,17.2147729 4.1986,17.2766085 4.1802,17.3284788 C4.1734,17.3472319 4.1796,17.3598005 4.1988,17.3661845 C4.2708,17.3897257 4.3198,17.4070823 4.3458,17.4182544 C4.4198,17.4497756 4.4234,17.4876808 4.3566,17.5319701 C4.2858,17.5786534 5.0302,17.3316708 5.1066,17.3284788 C5.1266,17.3276808 4.86197649,17.574997 4.88077649,17.582179 C5.08757649,17.6679646 5.0352,17.4979895 5.262,17.582179 C5.292,17.5933511 5.4044,17.6710971 5.3964,17.6790771 C5.3844,17.6946382 5.2424,17.8158603 5.262,17.8110723 C5.3036,17.8006982 5.4148,17.6351869 5.5032,17.6790771 C5.5212,17.6878552 5.57895705,17.7484006 5.59135705,17.7328395 C5.66295705,17.6434629 5.7476,17.6817672 5.82,17.7328395 C5.836,17.7444106 6.0676,17.8549626 6.0864,17.8617456 C6.3044,17.9395511 6.0444,18.0881796 6.2256,18.1975062 C6.2428,18.2078803 6.5484,18.1779551 6.5448,18.1975062 C6.5392,18.2274314 6.221,18.3072319 6.1878,18.3471322 C6.175,18.3626933 6.5256,18.4125686 6.5448,18.4189526 C6.6236,18.4448878 6.3254,18.4353117 6.345,18.4680299 C6.355,18.485187 6.5572,18.6972569 6.5448,18.712818 C6.492,18.7806484 6.3626,18.9003061 6.3414,18.9844957 C6.3338,19.0140219 6.2054,18.7824439 6.1782,18.7684788 C6.049,18.7018454 5.9296,18.6401995 5.82,18.5835411 C5.7924,18.5691771 5.8304,18.9553685 5.82,18.9844957 C5.7992,19.041154 5.7236,18.6980549 5.7072,18.712818 C5.6924,18.726384 5.64604435,19.0469223 5.62884435,19.0365483 C5.59324435,19.0150021 5.5876,18.6767082 5.5512,18.6595511 C5.5328,18.6511721 5.5168,18.6543641 5.5032,18.6691272 C5.4784,18.6950623 5.4572,18.7261845 5.4396,18.7624938 C5.4308,18.7804489 5.48681171,18.9159239 5.46681171,18.9143279 C5.43481171,18.9115349 5.36036814,18.9731597 5.32596814,18.9368504 C5.31236814,18.9224863 5.2816,19.0405383 5.262,19.0365483 C5.2144,19.0261742 4.9656,18.8731596 5.0268,18.8184962 C5.056,18.7925611 5.19184427,18.638005 5.16104427,18.6140648 C5.02384427,18.5199002 4.9868,18.7953305 4.824,18.8563779 C4.7336,18.8902931 4.6196,18.5181047 4.5,18.4949626 C4.48,18.4941646 4.4612,18.4983541 4.4436,18.5075312 C4.3584,18.5406484 4.3174,18.9392445 4.1802,18.9368504 C4.0786,18.9348554 3.8934,18.5516209 3.765,18.553616 C3.6646,18.5464339 3.6064,18.565586 3.5904,18.6110723 C3.5844,18.6302244 3.663,18.8623629 3.6438,18.8563779 C3.559,18.8312407 3.3598,18.6000998 3.2286,18.6140648 C3.2086,18.6160599 3.30228186,18.9180973 3.29548186,18.9368504 C3.28508186,18.9663766 3.1602,18.6840898 3.135,18.6733167 C2.9662,18.6002993 2.8182,18.6082793 2.691,18.6972569 C2.6746,18.7088279 2.7094,18.9924757 2.691,18.9844957 C2.6198,18.9545705 2.4654,18.6631421 2.3322,18.6739152 C2.2654,18.6791022 2.2042,18.6627431 2.1486,18.6248379 C2.1114,18.5989027 2.0964,18.5991022 2.1036,18.6254364 C2.0576,18.6100748 2.0516,18.5877307 2.07,18.5685786 C2.0868,18.5510224 2.081,18.5206983 2.0526,18.477606 C2.0418,18.4608479 2.0278,18.4578554 2.0106,18.4686284 C1.9874,18.4829925 1.948,18.4664339 1.8924,18.4189526 C1.0412,17.0986534 0.4712,15.6472818 0.1824,14.0648379 C0.2296,13.9938155 0.2488,14.0037905 0.24,14.0947631 Z" id="Shape" fill="#205CEE"></path>
            <path d="M22.935,15.0074813 C23.0806,15.0326185 23.2684,15.037606 23.4984,15.0224439 C23.536,15.0212469 23.552,15.0390025 23.5464,15.0757107 C23.546,15.0804988 23.5572,15.0884788 23.58,15.0996509 C23.2496,16.3441397 22.7188,17.5104239 21.9876,18.5985037 C21.9508,18.5210973 21.9164,18.5177057 21.8844,18.5883292 C21.878,18.6026933 21.8682,18.6054863 21.855,18.5967082 C21.8118,18.563591 21.7329988,18.8145292 21.6985988,18.8312873 C21.5353988,18.9114868 21.4476668,18.9302784 21.2484668,18.9175103 C21.0816668,18.9067372 21.1297329,19.0007769 21.0389329,19.1236697 C20.9765329,19.2090562 20.6762,18.9925187 20.5986,19.038404 C20.5838,19.0519701 20.567,19.0553616 20.5482,19.0485786 C20.5162,19.0378055 20.5272729,19.3452369 20.4704729,19.3951122 C20.4268729,19.4334165 20.325,19.1678803 20.2758,19.1742643 C20.2562,19.1770574 20.2382,19.1840399 20.2218,19.195212 C20.081,19.2917706 19.9497594,19.597606 19.8069594,19.6794015 C19.6877594,19.7472319 19.5982,19.602793 19.5594,19.6794015 C19.5498,19.6969576 19.5358,19.7019451 19.5174,19.6943641 C19.4534,19.6688279 19.3919951,19.9561097 19.2935951,20.0798005 C19.2347951,20.153616 19.1454,19.927581 19.065,19.8781047 C19.023,19.8569576 18.958,19.8892768 18.87,19.9750623 C18.836,20.0081796 18.7262459,20.5280295 18.6810459,20.5487776 C18.6362459,20.5918699 18.656,20.1069327 18.6,20.0798005 C18.5532,20.0570574 18.5224,20.0572569 18.5076,20.080399 C18.4968,20.0975561 18.2064,20.3404922 18.2028,20.3205421 C18.1916,20.3133601 18.4278,20.0502743 18.345,20.0199501 C18.2226,19.9748628 18.1276,19.995611 18.06,20.0821945 C18.0476,20.0981546 17.8066,20.1456547 17.8086,20.1257046 C17.817,20.0482981 18.0762,19.8946633 18.1146,19.7637905 C18.1294,19.7131172 18.1104,19.6887781 18.0576,19.6907731 C17.97,19.6943641 17.542,19.8902743 17.4432,19.841596 C17.414,19.8272319 17.738,19.5860349 17.7456,19.5549127 C17.7612,19.4862843 17.7662,19.4330175 17.7606,19.3951122 C17.7578,19.3751621 17.747,19.3617955 17.7282,19.3550125 C17.6202,19.3167082 17.5116,19.280798 17.4024,19.2472818 C17.3832,19.2412968 17.1577376,19.337385 17.1605376,19.3174349 C17.1757376,19.2061132 17.1609376,18.8901362 17.1605376,18.7744255 C17.1601376,18.6263956 17.4508,18.6212469 17.5536,18.5721696 C17.594,18.5522195 17.589,18.5452369 17.5386,18.5512219 C17.5186,18.5504239 17.505,18.5406484 17.4978,18.5218953 C17.4758,18.4648379 17.2072356,18.4234515 17.2776356,18.4007084 C17.2964356,18.3943243 17.6034,18.3840399 17.613,18.3668828 C17.6394,18.3194015 17.68,18.2862843 17.7348,18.2675312 C17.6004,18.2627431 17.4646,18.2627431 17.325,18.2543641 C17.2806,18.2515711 17.2856,18.2465835 17.34,18.2394015 C17.414,18.2409975 17.464,18.236808 17.49,18.2268329 C17.6492,18.2260349 17.798,18.2242394 17.9364,18.2214464 C17.9564,18.2210474 17.974,18.2144638 17.9892,18.2016958 C18.0172,18.1785536 18.0188,18.1414464 17.994,18.0903741 C17.9856,18.072419 17.9744,18.0562594 17.9604,18.0418953 C17.3592,17.4266334 16.7574,16.8 16.155,16.161995 C16.2066,16.166384 16.2184,16.1530175 16.1904,16.1218953 C16.1768,16.1071322 16.1788,16.0951621 16.1964,16.085985 C16.2516,16.0564589 16.314,16.0123691 16.3836,15.9537157 C16.4492,15.8986534 16.5076,15.8824938 16.5588,15.9052369 C16.5772,15.912818 16.5932,15.9092269 16.6068,15.8944638 C16.6356,15.8637406 16.655,15.8224439 16.665,15.7705736 C16.6694,15.7466334 16.6406,15.7352618 16.5786,15.7364589 C16.5586,15.7368579 16.5554,15.7296758 16.569,15.7149127 C16.6014,15.6790025 16.6576,15.6492768 16.7376,15.6257357 C16.7568,15.6201496 16.771,15.6083791 16.7802,15.5904239 C16.8154,15.5221945 16.865,15.4547631 16.929,15.3881297 C16.9722,15.3430424 17.0248,15.3250873 17.0868,15.3342643 C17.2588,15.3598005 17.3776,15.3464339 17.4432,15.2941646 C17.496,15.2518703 17.5538,15.2426933 17.6166,15.2666334 C17.725,15.3073317 17.8116,15.3270823 17.8764,15.3258853 C17.8964,15.3254863 17.9016,15.3340648 17.892,15.3516209 C17.8752,15.3815461 17.8474,15.4026933 17.8086,15.4150623 C17.7302,15.4405985 17.724,15.4593516 17.79,15.4713217 C17.9204,15.4948628 18.0394,15.5166085 18.147,15.5365586 C18.1666,15.5405486 18.1852,15.5377556 18.2028,15.5281796 C18.2328,15.4914713 18.2802,15.4675312 18.345,15.4563591 C18.4402,15.44 18.5214,15.4112718 18.5886,15.3701746 C18.6554,15.3083292 18.7314,15.2935661 18.8166,15.3258853 C18.863,15.3434414 18.9146,15.3258853 18.9714,15.273217 C19.0162,15.2313217 19.0694,15.2081796 19.131,15.2037905 C19.3314,15.1894264 19.5044,15.2087781 19.65,15.2618454 C19.7116,15.2841895 19.8078,15.2604489 19.9386,15.1906234 C20.0602,15.1307731 20.209,15.1245885 20.385,15.1720698 C20.591,15.2287282 20.7898,15.2275312 20.9814,15.1684788 C21.2998,15.0703242 21.6348,15.0511721 21.9864,15.1110224 C22.0064,15.1142145 22.0264,15.115212 22.0464,15.114015 C22.2656,15.1008479 22.4956,15.0641397 22.7364,15.0038903 C22.8028,14.9947132 22.869,14.9959102 22.935,15.0074813 Z" id="Shape" fill="#6375F7"></path>
            <path d="M10.4004,15.6221446 C10.498,15.6608479 10.6062,15.6845885 10.725,15.6933666 C10.745,15.6949626 10.7634,15.7011471 10.7802,15.7119202 C10.8706,15.7701746 10.9652,15.832818 11.064,15.8998504 C11.0804,15.9110224 11.0986,15.916808 11.1186,15.917207 C11.1618,15.918005 11.1742,15.9245885 11.1558,15.9369576 C11.1114,15.9664838 11.1146,15.9892269 11.1654,16.005187 C11.4346,16.0893766 11.6104,16.1689776 11.6928,16.24399 C11.7076,16.2575561 11.7072,16.2705237 11.6916,16.2828928 C11.566,16.3846384 11.424,16.5290773 11.2656,16.7162095 C11.2528,16.7317706 11.2374,16.7349626 11.2194,16.7257855 C11.1774,16.7050374 11.1372,16.6888778 11.0988,16.6773067 C11.0796,16.6713217 11.0658,16.6773067 11.0574,16.6952618 C11.0258,16.7638903 10.9838,16.8135661 10.9314,16.8442893 C10.9154,16.8534663 10.8816,16.8397007 10.83,16.8029925 C10.7772,16.7782544 10.758,16.7604988 10.7724,16.7497257 C10.7884,16.7377556 10.788,16.726384 10.7712,16.715611 C10.7028,16.6709227 10.6566,16.6577556 10.6326,16.6761097 C10.6166,16.6884788 10.6004,16.6890773 10.584,16.6779052 C10.5332,16.642394 10.4914,16.6354115 10.4586,16.6569576 C10.3718,16.714813 10.3794,16.7497257 10.4814,16.7616958 C10.5366,16.7664838 10.5456,16.7896259 10.5084,16.8311222 C10.366,16.9879302 10.2248,17.1561097 10.0848,17.3356608 C10.0536,17.3755611 10.0164,17.3819451 9.9732,17.354813 C9.9324,17.3292768 9.8886,17.3250873 9.8418,17.3422444 C9.823,17.3494264 9.8138,17.3430424 9.8142,17.3230923 C9.815,17.280798 9.8104,17.2648379 9.8004,17.275212 C9.7868,17.2895761 9.7812,17.3067332 9.7836,17.3266833 C9.792,17.3909227 9.7816,17.4457855 9.7524,17.4912718 C9.7484,17.032419 9.7484,16.5735661 9.7524,16.1147132 C9.7708,16.0265337 9.78,15.9217955 9.78,15.8004988 C9.78,15.7394514 9.7844,15.7334663 9.7932,15.7825436 C9.7968,15.8020948 9.8084,15.8096758 9.828,15.8052868 C9.8728,15.7949127 9.9134,15.7715711 9.9498,15.7352618 C9.9642,15.7212968 9.98,15.7193017 9.9972,15.7292768 C10.0936,15.7847382 10.1718,15.766783 10.2318,15.6754115 C10.2734,15.6119701 10.3296,15.5942145 10.4004,15.6221446 Z" id="Shape" fill="#396AEC"></path>
            <path d="M6.0864,16.2080798 C6.2988,16.3090274 6.499,16.3814464 6.687,16.4253367 C6.7066,16.4301247 6.7164,16.4424938 6.7164,16.4624439 C6.7168,16.487182 6.701,16.5173067 6.669,16.552818 C6.6554,16.567581 6.6586,16.5753616 6.6786,16.5761596 C6.7382,16.5789526 6.8214,16.5617955 6.9282,16.5246883 C6.947,16.5183042 6.9608,16.5061347 6.9696,16.4881796 C7.0072,16.4143641 7.0702,16.398404 7.1586,16.4402993 C7.1978,16.4586534 7.2304,16.4696259 7.2564,16.473217 C7.2764,16.47601 7.288,16.487182 7.2912,16.5067332 C7.32,16.6826933 7.3384,16.7702743 7.3464,16.7694763 C7.352,16.7686783 7.3574,16.7050374 7.3626,16.5785536 C7.3634,17.126384 7.3654,17.6638404 7.3686,18.1909227 C7.3686,18.2108728 7.3786,18.2208479 7.3986,18.2208479 C8.137,18.2188529 8.8858,18.2200499 9.645,18.2244389 C9.6954,18.2248379 9.7312,18.2198504 9.7524,18.2094763 C9.7596,18.1899252 9.7826,18.1825436 9.8214,18.1873317 C9.8414,18.1897257 9.8466,18.1821446 9.837,18.1645885 C9.8162,18.1119202 9.8322,18.0969576 9.885,18.1197007 C9.9834,18.162394 10.3369524,18.5761596 10.4485524,18.6248379 C10.3741524,18.7329676 10.358,18.5330673 10.3152,18.6032918 C10.3048,18.6204489 10.2261068,18.5605985 10.2445068,18.5685786 C10.2805068,18.5845387 10.2904,18.6120698 10.3152,18.6308229 C10.3312,18.642793 10.3196,18.6543641 10.3152,18.6739152 C10.304,18.7221945 10.3456,18.7910752 10.3152,18.8341675 C10.3036,18.8505266 10.4906312,18.7549127 10.5054312,18.7684788 C10.5134312,18.7756608 10.3348,18.8922264 10.3656,18.9137726 C10.384,18.9265407 10.3928,18.9290719 10.3884,18.951416 C10.3592,19.0256305 10.6124894,19.1251155 10.5664894,19.1953399 C10.4540894,19.367709 10.3676,19.5521234 10.3152,19.7141184 C10.3076,19.7320735 10.2236,19.918962 10.0536,19.8236004 C9.9704,19.7769172 9.81,19.7394109 9.8064,19.8236004 C9.8056,19.8435506 9.7876,19.9489608 9.8064,19.9565418 C9.9292,20.0080131 9.834,19.8412301 9.7524,19.9565418 C9.7064,20.0215792 9.7452,19.997207 9.8064,20.0187531 C9.8412,20.0311222 9.8124,20.1314462 9.8064,20.1677554 C9.7944,20.2415709 9.5388,20.2256359 9.5232,20.2719202 C9.5168,20.2910723 9.5224,20.3054364 9.54,20.3150125 C9.616,20.3577057 9.755,20.100324 9.8214,20.1677554 C9.8422,20.1885035 10.0294,19.984871 10.0362,19.9565418 C10.0534,19.8859184 10.1712,20.0590524 10.2,20.0187531 C10.2116,20.002394 10.3004,20.1545883 10.3152,20.1677554 C10.4744,20.3070073 10.5020544,20.3595012 10.6212544,20.4688279 C10.7060544,20.5466334 10.7709647,20.5819451 10.6969647,20.6705237 C10.6409647,20.7375561 10.6161647,20.8630424 10.6969647,20.9200998 C11.0763042,20.7339651 10.8524469,20.9013466 10.8456469,20.9200998 C10.8116469,21.0102743 10.7687395,21.2428112 10.7539395,21.3138337 C10.7427395,21.366103 10.8008469,21.416719 10.8456469,21.4458462 C10.9096469,21.4873425 11.5206919,21.5983494 11.4938919,21.6446337 C11.4302919,21.7531623 11.0535256,22.2171518 11.0483256,22.3180994 C11.0091256,22.3061293 10.6000894,22.3715657 10.5664894,22.3180994 C10.5556894,22.3009423 10.5130312,22.4333911 10.5054312,22.4517453 C10.4682312,22.5383288 10.5378312,22.1952066 10.5054312,22.3180994 C10.5002312,22.3372515 10.3884,22.6159786 10.3884,22.6359287 C10.3896,22.7871506 10.4292,22.592295 10.3656,22.751896 C10.358,22.7702502 10.4505524,22.8614604 10.4485524,22.8814105 C10.4357524,23.0230564 10.3108,23.0796159 10.3152,23.2272469 C10.3156,23.247197 10.3284,23.3115212 10.3152,23.3266833 C10.3036,23.3398504 10.2052,23.3653703 10.2,23.4068665 C10.1824,23.5461184 9.8834,23.5806484 9.873,23.6708229 C9.871,23.6907731 9.88,23.7021446 9.9,23.7049377 C9.97,23.7141147 9.975,23.7318703 9.915,23.7582045 C8.8818,23.5730673 7.893,23.2634414 6.9486,22.8293267 C5.6886,22.2499751 4.5462,21.4543641 3.5214,20.4424938 C2.8834,19.8104738 2.3404,19.1359601 1.8924,18.4189526 C1.948,18.4664339 1.9874,18.4829925 2.0106,18.4686284 C2.0278,18.4578554 2.0418,18.4608479 2.0526,18.477606 C2.081,18.5206983 2.0868,18.5510224 2.07,18.5685786 C2.0516,18.5877307 2.0576,18.6100748 2.088,18.635611 C2.0964,18.5991022 2.1114,18.5989027 2.1486,18.6248379 C2.2042,18.6627431 2.2654,18.6791022 2.3322,18.6739152 C2.4654,18.6631421 2.5676,18.6727182 2.6388,18.7026434 C2.6572,18.7106234 2.6746,18.7088279 2.691,18.6972569 C2.8182,18.6082793 2.9662,18.6002993 3.135,18.6733167 C3.1602,18.6840898 3.178,18.6747132 3.1884,18.645187 C3.1952,18.6264339 3.2086,18.6160599 3.2286,18.6140648 C3.3598,18.6000998 3.4678,18.6056858 3.5526,18.6308229 C3.5718,18.636808 3.5844,18.6302244 3.5904,18.6110723 C3.6064,18.565586 3.6646,18.5464339 3.765,18.553616 C3.8934,18.5516209 4.0084,18.5516209 4.11,18.553616 C4.2472,18.55601 4.3584,18.5406484 4.4436,18.5075312 C4.4612,18.4983541 4.48,18.4941646 4.5,18.4949626 C4.6196,18.5181047 4.7246,18.5127182 4.815,18.478803 C4.9778,18.4177556 5.1278,18.4343142 5.265,18.5284788 C5.2958,18.552419 5.2966,18.5773566 5.2674,18.6032918 C5.2062,18.6579551 5.1994,18.6904738 5.247,18.7008479 C5.2666,18.7048379 5.2832,18.714015 5.2968,18.7283791 C5.3312,18.7646883 5.3644,18.7842394 5.3964,18.7870324 C5.4164,18.7886284 5.4308,18.7804489 5.4396,18.7624938 C5.4572,18.7261845 5.4784,18.6950623 5.5032,18.6691272 C5.5168,18.6543641 5.5328,18.6511721 5.5512,18.6595511 C5.5876,18.6767082 5.6236,18.6960599 5.6592,18.717606 C5.6764,18.72798 5.6924,18.726384 5.7072,18.712818 C5.7236,18.6980549 5.7422,18.6623441 5.763,18.6056858 C5.7734,18.5765586 5.7924,18.5691771 5.82,18.5835411 C5.9296,18.6401995 6.049,18.7018454 6.1782,18.7684788 C6.2054,18.7824439 6.2228,18.7746633 6.2304,18.7451372 C6.2516,18.6609476 6.2886,18.5849377 6.3414,18.5171072 C6.3538,18.5015461 6.355,18.485187 6.345,18.4680299 C6.3254,18.4353117 6.2762,18.405985 6.1974,18.3800499 C6.1782,18.3736658 6.175,18.3626933 6.1878,18.3471322 C6.221,18.3072319 6.2404,18.2723192 6.246,18.242394 C6.2496,18.2228429 6.2428,18.2078803 6.2256,18.1975062 C6.0444,18.0881796 5.8448,17.9946135 5.6268,17.916808 C5.608,17.9100249 5.5906,17.9008479 5.5746,17.8892768 C5.5022,17.8382045 5.4302,17.8573566 5.3586,17.9467332 C5.3462,17.9622943 5.331,17.9656858 5.313,17.9569077 C5.2246,17.9130175 5.1596,17.8962594 5.118,17.9066334 C5.1146,17.8824938 5.1036,17.8729177 5.0736,17.8617456 C4.8468,17.7775561 4.63,17.6925686 4.4232,17.606783 C4.4044,17.599601 4.385,17.596409 4.365,17.597207 C4.2886,17.600399 4.2858,17.5786534 4.3566,17.5319701 C4.4234,17.4876808 4.4198,17.4497756 4.3458,17.4182544 C4.3198,17.4070823 4.2708,17.3897257 4.1988,17.3661845 C4.1796,17.3598005 4.1734,17.3472319 4.1802,17.3284788 C4.1986,17.2766085 4.2428,17.2209476 4.3128,17.1614963 C4.3324,17.1447382 4.3314,17.1289776 4.3098,17.1142145 C4.2158,17.0511721 4.1248,17.037207 4.0368,17.0723192 C4.0402,17.044389 4.0464,17.0346135 4.0464,17.0310224 C4.0464,17.0110723 4.0366,16.9989027 4.017,16.9945137 C3.803,16.9434414 3.6048,16.8865835 3.4224,16.8239401 C3.4032,16.8175561 3.3996,16.806384 3.4116,16.7904239 C3.5224,16.643591 3.694,16.5941147 3.9264,16.641995 C3.9676,16.6507731 4.0034,16.638404 4.0338,16.6048878 C4.047,16.5897257 4.0632,16.5795511 4.0824,16.5743641 C4.156,16.554015 4.2414,16.5691771 4.3386,16.6198504 C4.3582,16.6298254 4.375,16.6264339 4.389,16.6096758 C4.489,16.486783 4.616,16.4263342 4.77,16.4283292 C4.79,16.4287282 4.808,16.4349127 4.824,16.4468828 C4.8784,16.486384 4.9224,16.4708229 4.956,16.4001995 C4.9644,16.3818454 4.978,16.3690773 4.9968,16.3618953 C5.0384,16.3451372 5.0902,16.3541147 5.1522,16.3888279 C5.191,16.4107731 5.2276,16.4073815 5.262,16.3786534 C5.364,16.2932668 5.4154,16.2501746 5.4162,16.2493766 C5.457,16.1975062 5.5072,16.1861347 5.5668,16.2152618 C5.6816,16.2719202 5.7492,16.2691272 5.7696,16.2068828 C5.7756,16.1877307 5.788,16.1747631 5.8068,16.16798 C5.8816,16.1416459 5.9748,16.1550125 6.0864,16.2080798 Z" id="Shape" fill="#3450E6"></path>
            <path d="M13.7574,16.8778055 C14.1734,17.3091272 14.5954,17.7486284 15.0234,18.1963092 C15.0414,18.2150623 15.0636,18.2244389 15.09,18.2244389 C15.912,18.2232419 16.712,18.2240399 17.49,18.2268329 C17.464,18.236808 17.414,18.2409975 17.34,18.2394015 C17.4646,18.2627431 17.6004,18.2627431 17.7324,18.2543641 C17.68,18.2862843 17.6394,18.3194015 17.613,18.3668828 C17.6034,18.3840399 17.5892,18.3958105 17.5704,18.4021945 C17.5,18.4249377 17.4758,18.4648379 17.4978,18.5218953 C17.505,18.5406484 17.5186,18.5504239 17.5386,18.5512219 C17.589,18.5452369 17.594,18.5522195 17.5536,18.5721696 C17.4508,18.6212469 17.3996,18.7198005 17.4,18.8678304 C17.4004,18.9835411 17.393,19.0970574 17.3778,19.2083791 C17.375,19.2283292 17.3832,19.2412968 17.4024,19.2472818 C17.5116,19.280798 17.6202,19.3167082 17.7282,19.3550125 C17.747,19.3617955 17.7578,19.3751621 17.7606,19.3951122 C17.7662,19.4330175 17.7612,19.4862843 17.7456,19.5549127 C17.738,19.5860349 17.7488,19.6087781 17.778,19.6231421 C17.8768,19.6718204 17.97,19.6943641 18.0576,19.6907731 C18.1104,19.6887781 18.1294,19.7131172 18.1146,19.7637905 C18.0762,19.8946633 18.0528,19.998803 18.0444,20.0762095 C18.1276,19.995611 18.2226,19.9748628 18.345,20.0199501 C18.4278,20.0502743 18.4748,20.0690274 18.486,20.0762095 C18.5224,20.0572569 18.5532,20.0570574 18.6,20.0798005 C18.656,20.1069327 18.7064,20.0989526 18.7512,20.0558603 C18.7964,20.0351122 18.836,20.0081796 18.87,19.9750623 C18.958,19.8892768 19.023,19.8569576 19.065,19.8781047 C19.1454,19.927581 19.215,19.9154115 19.2738,19.841596 C19.3722,19.7179052 19.4534,19.6688279 19.5174,19.6943641 C19.5358,19.7019451 19.5498,19.6969576 19.5594,19.6794015 C19.5982,19.602793 19.6772,19.5305736 19.7964,19.4627431 C19.9392,19.3809476 20.081,19.2917706 20.2218,19.195212 C20.2382,19.1840399 20.2562,19.1770574 20.2758,19.1742643 C20.325,19.1678803 20.3714,19.1455362 20.415,19.1072319 C20.4718,19.0573566 20.5162,19.0378055 20.5482,19.0485786 C20.567,19.0553616 20.5838,19.0519701 20.5986,19.038404 C20.6762,18.9925187 20.7462,18.9268828 20.8086,18.8414963 C20.8994,18.7186035 21.0282,18.6625436 21.195,18.6733167 C21.3942,18.6860848 21.5754,18.6523691 21.7386,18.5721696 C21.773,18.5554115 21.8118,18.563591 21.855,18.5967082 C21.9164,18.5177057 21.9508,18.5210973 21.9876,18.5985037 C21.3872,19.5050374 20.668,20.318005 19.83,21.0374065 C18.8452,21.8816958 17.759,22.5488279 16.5714,23.038803 C15.2466,23.5846384 13.8266,23.8850873 12.3114,23.9401496 C12.1062,23.9401496 11.9012,23.9401496 11.6964,23.9401496 C11.1324,23.919202 10.5386,23.8623441 9.915,23.7582045 C9.975,23.7318703 9.97,23.7141147 9.9,23.7049377 C9.88,23.7021446 9.871,23.6907731 9.873,23.6708229 C9.8834,23.5806484 9.8974,23.4659352 9.915,23.3266833 C9.9202,23.285187 9.9286,23.2578554 9.9402,23.2446883 C9.9534,23.2295262 9.9598,23.2119701 9.9594,23.19202 C9.955,23.044389 9.9592,22.8997506 9.972,22.7581047 C9.974,22.7381546 9.9788,22.7190025 9.9864,22.7006484 C10.05,22.5410474 10.0812,22.3856359 10.08,22.234414 C10.08,22.2144638 10.0826,22.1949127 10.0878,22.1757606 C10.1202,22.0528678 10.155,21.9481297 10.1922,21.8615461 C10.2534,21.913217 10.279,21.9495262 10.2966,21.9686783 C10.3234,21.8605486 10.3578,21.7558105 10.4214,21.6472818 C10.4482,21.6009975 10.4296,21.5571072 10.3656,21.515611 C10.3208,21.4864838 10.304,21.4457855 10.3152,21.3935162 C10.33,21.3224938 10.3544,21.2418953 10.3884,21.1517207 C10.3952,21.1329676 10.3906,21.1178055 10.3746,21.1062344 C10.2938,21.0491771 10.2814,20.9871322 10.3374,20.9200998 C10.4114,20.8315212 10.406,20.7483292 10.3212,20.6705237 C10.202,20.561197 10.0628,20.4369077 9.9036,20.2976559 C9.8888,20.2844888 9.8756,20.2860848 9.864,20.3024439 C9.8352,20.3427431 9.8122,20.3982045 9.795,20.4688279 C9.7882,20.4971571 9.7744,20.5009476 9.7536,20.4801995 C9.6872,20.4127681 9.616,20.3577057 9.54,20.3150125 C9.5224,20.3054364 9.5168,20.2910723 9.5232,20.2719202 C9.5388,20.2256359 9.5526,20.165586 9.5646,20.0917706 C9.5706,20.0554613 9.5562,20.0311222 9.5214,20.0187531 C9.4602,19.997207 9.4526,19.9539152 9.4986,19.8888778 C9.5802,19.7735661 9.5596,19.6901746 9.4368,19.6387032 C9.418,19.6311222 9.409,19.6173566 9.4098,19.5974065 C9.4134,19.513217 9.4568,19.4944638 9.54,19.5411471 C9.71,19.6365087 9.7988,19.675212 9.8064,19.6572569 C9.8588,19.4952618 9.9412,19.3280798 10.0536,19.1557107 C10.0996,19.0854863 10.1372,19.0132668 10.1664,18.9390524 C10.1708,18.9167082 10.1638,18.8991521 10.1454,18.886384 C10.1146,18.8648379 10.0952,18.8504738 10.0872,18.8432918 C10.0724,18.8297257 10.0708,18.8147631 10.0824,18.798404 C10.1128,18.7553117 10.1336,18.7096259 10.1448,18.6613466 C10.1492,18.6417955 10.1434,18.6260349 10.1274,18.6140648 C10.1026,18.5953117 10.0722,18.5779551 10.0362,18.561995 C10.0178,18.554015 10.0138,18.5414464 10.0242,18.5242893 C10.067,18.4540648 10.1256,18.3648878 10.2,18.2567581 C10.2472,18.2771072 10.2924,18.2998504 10.3356,18.3249875 C10.3528,18.3353616 10.3668,18.3321696 10.3776,18.3154115 C10.448,18.2064838 10.5186,18.1101247 10.5894,18.0263342 C10.6022,18.0111721 10.6174,18.0083791 10.635,18.0179551 C10.6726,18.0379052 10.7034,18.0528678 10.7274,18.0628429 C10.7458,18.0708229 10.761,18.0668329 10.773,18.0508728 C10.799,18.0165586 10.8254,17.9836409 10.8522,17.9521197 C10.865,17.9365586 10.88,17.9337656 10.8972,17.9437406 C10.9872,17.996409 11.0482,17.9974065 11.0802,17.9467332 C11.091,17.9299751 11.089,17.914813 11.0742,17.9012469 C11.0482,17.8781047 11.0202,17.8567581 10.9902,17.837207 C10.9734,17.8260349 10.9696,17.8116708 10.9788,17.7941147 C11.0256,17.7031421 11.1038,17.6041895 11.2134,17.4972569 C11.2278,17.4832918 11.2448,17.4779052 11.2644,17.4810973 C11.2944,17.4862843 11.3218,17.4984539 11.3466,17.517606 C11.3622,17.5299751 11.3772,17.5293766 11.3916,17.5158105 C11.4148,17.4942643 11.4422,17.4595511 11.4738,17.4116708 C11.4846,17.3949127 11.4988,17.3913217 11.5164,17.4008978 C11.614,17.4543641 11.7452,17.5154115 11.91,17.5840399 C11.9276,17.5912219 11.9426,17.5876309 11.955,17.5732668 C12.0714,17.436808 12.193,17.3079302 12.3198,17.1866334 C12.3342,17.1726683 12.3502,17.1704738 12.3678,17.1800499 C12.4182,17.206783 12.4844,17.2319202 12.5664,17.2554613 C12.6408,17.2770075 12.6914,17.3202993 12.7182,17.3853367 C12.727,17.4036908 12.7246,17.4200499 12.711,17.434414 C12.6918,17.4551621 12.674,17.4717207 12.6576,17.4840898 C12.6416,17.4964589 12.6432,17.5058354 12.6624,17.5122195 C12.7536,17.5437406 12.82,17.5828429 12.8616,17.6295262 C12.8748,17.6446883 12.8884,17.6450873 12.9024,17.6307232 C12.946,17.5876309 12.9894,17.5445387 13.0326,17.5014464 C13.0466,17.4870823 13.063,17.4834913 13.0818,17.4906733 C13.1114,17.5022444 13.1414,17.5138155 13.1718,17.5253865 C13.1906,17.5325686 13.2072,17.5291771 13.2216,17.515212 C13.3112,17.4290274 13.3948,17.35601 13.4724,17.2961596 C13.4884,17.2841895 13.4974,17.2682294 13.4994,17.2482793 C13.5034,17.2095761 13.4936,17.1694763 13.47,17.12798 C13.46,17.1108229 13.4606,17.0938653 13.4718,17.0771072 C13.4942,17.043192 13.5324,17.042793 13.5864,17.0759102 C13.6488,17.1142145 13.695,17.1030424 13.725,17.042394 C13.7442,17.0036908 13.753,16.9775561 13.7514,16.96399 C13.7466,16.9252868 13.7486,16.8965586 13.7574,16.8778055 Z" id="Shape" fill="#5C5FED"></path>
        </g>
    </g>
</svg>